<svg width="48" height="48" viewBox="0 0 48 48" fill="none" xmlns="http://www.w3.org/2000/svg">
<path d="M34.1001 40.56C32.1401 42.46 30.0001 42.16 27.9401 41.26C25.7601 40.34 23.7601 40.3 21.4601 41.26C18.5801 42.5 17.0601 42.14 15.3401 40.56C5.58008 30.5 7.02008 15.18 18.1001 14.62C20.8001 14.76 22.6801 16.1 24.2601 16.22C26.6201 15.74 28.8801 14.36 31.4001 14.54C34.4201 14.78 36.7001 15.98 38.2001 18.14C31.9601 21.88 33.4401 30.1 39.1601 32.4C38.0201 35.4 36.5401 38.38 34.0801 40.58L34.1001 40.56ZM24.0601 14.5C23.7601 10.04 27.3801 6.36 31.5401 6C32.1201 11.16 26.8601 15 24.0601 14.5Z" fill="black"/>
</svg>
