<svg width="30" height="30" viewBox="0 0 30 30" fill="none" xmlns="http://www.w3.org/2000/svg">
<circle cx="15" cy="15" r="15" fill="#1746A2"/>
<g clip-path="url(#clip0_1938_5611)">
<path d="M19.375 19.375H10.625C10.3929 19.375 10.1704 19.2828 10.0063 19.1187C9.84219 18.9546 9.75 18.7321 9.75 18.5V12.375C9.75 12.1429 9.84219 11.9204 10.0063 11.7563C10.1704 11.5922 10.3929 11.5 10.625 11.5H12.375L13.25 10.1875H16.75L17.625 11.5H19.375C19.6071 11.5 19.8296 11.5922 19.9937 11.7563C20.1578 11.9204 20.25 12.1429 20.25 12.375V18.5C20.25 18.7321 20.1578 18.9546 19.9937 19.1187C19.8296 19.2828 19.6071 19.375 19.375 19.375Z" stroke="white" stroke-width="1.5" stroke-linecap="round" stroke-linejoin="round"/>
<path d="M15 17.1875C16.0873 17.1875 16.9688 16.3061 16.9688 15.2188C16.9688 14.1314 16.0873 13.25 15 13.25C13.9127 13.25 13.0312 14.1314 13.0312 15.2188C13.0312 16.3061 13.9127 17.1875 15 17.1875Z" stroke="white" stroke-width="1.5" stroke-linecap="round" stroke-linejoin="round"/>
</g>
<defs>
<clipPath id="clip0_1938_5611">
<rect width="14" height="14" fill="white" transform="translate(8 8)"/>
</clipPath>
</defs>
</svg>
