<svg width="48" height="48" viewBox="0 0 48 48" fill="none" xmlns="http://www.w3.org/2000/svg">
<path d="M34 6.99998C34 6.73477 33.8946 6.48041 33.7071 6.29288C33.5196 6.10534 33.2652 5.99998 33 5.99998H28C25.4822 5.87457 23.0172 6.75077 21.1434 8.43714C19.2697 10.1235 18.1396 12.483 18 15V20.4H13C12.7348 20.4 12.4804 20.5053 12.2929 20.6929C12.1054 20.8804 12 21.1348 12 21.4V26.6C12 26.8652 12.1054 27.1196 12.2929 27.3071C12.4804 27.4946 12.7348 27.6 13 27.6H18V41C18 41.2652 18.1054 41.5196 18.2929 41.7071C18.4804 41.8946 18.7348 42 19 42H25C25.2652 42 25.5196 41.8946 25.7071 41.7071C25.8946 41.5196 26 41.2652 26 41V27.6H31.24C31.4624 27.6032 31.6795 27.5321 31.857 27.3981C32.0345 27.2641 32.1622 27.0747 32.22 26.86L33.66 21.66C33.6998 21.5122 33.7051 21.3573 33.6756 21.2072C33.6461 21.057 33.5826 20.9156 33.4898 20.7939C33.3971 20.6722 33.2777 20.5734 33.1407 20.5051C33.0038 20.4368 32.853 20.4008 32.7 20.4H26V15C26.0497 14.5049 26.2822 14.0462 26.652 13.7134C27.0219 13.3805 27.5025 13.1975 28 13.2H33C33.2652 13.2 33.5196 13.0946 33.7071 12.9071C33.8946 12.7196 34 12.4652 34 12.2V6.99998Z" fill="#3B5998"/>
</svg>
