<svg width="25" height="25" viewBox="0 0 25 25" fill="none" xmlns="http://www.w3.org/2000/svg">
<g clip-path="url(#clip0_64_91)">
<path d="M12.2459 2.40679C15.4521 2.40679 15.8318 2.42085 17.0927 2.4771C18.2646 2.52866 18.8974 2.72554 19.3193 2.8896C19.8771 3.10522 20.2802 3.36772 20.6974 3.78491C21.1193 4.20679 21.3771 4.60522 21.5927 5.16304C21.7568 5.58491 21.9537 6.22241 22.0052 7.3896C22.0615 8.65522 22.0755 9.03491 22.0755 12.2365C22.0755 15.4427 22.0615 15.8224 22.0052 17.0834C21.9537 18.2552 21.7568 18.888 21.5927 19.3099C21.3771 19.8677 21.1146 20.2709 20.6974 20.688C20.2755 21.1099 19.8771 21.3677 19.3193 21.5834C18.8974 21.7474 18.2599 21.9443 17.0927 21.9958C15.8271 22.0521 15.4474 22.0662 12.2459 22.0662C9.0396 22.0662 8.65991 22.0521 7.39898 21.9958C6.2271 21.9443 5.59429 21.7474 5.17241 21.5834C4.6146 21.3677 4.21147 21.1052 3.79429 20.688C3.37241 20.2662 3.1146 19.8677 2.89897 19.3099C2.73491 18.888 2.53804 18.2505 2.48647 17.0834C2.43022 15.8177 2.41616 15.438 2.41616 12.2365C2.41616 9.03022 2.43022 8.65054 2.48647 7.3896C2.53804 6.21772 2.73491 5.58491 2.89897 5.16304C3.1146 4.60522 3.3771 4.2021 3.79429 3.78491C4.21616 3.36304 4.6146 3.10522 5.17241 2.8896C5.59429 2.72554 6.23179 2.52866 7.39898 2.4771C8.65991 2.42085 9.0396 2.40679 12.2459 2.40679ZM12.2459 0.24585C8.98804 0.24585 8.58022 0.259912 7.30054 0.316162C6.02554 0.372412 5.14897 0.578662 4.3896 0.873975C3.59741 1.18335 2.9271 1.59116 2.26147 2.26147C1.59116 2.9271 1.18335 3.59741 0.873975 4.38491C0.578662 5.14897 0.372412 6.02085 0.316162 7.29585C0.259912 8.58022 0.24585 8.98804 0.24585 12.2458C0.24585 15.5037 0.259912 15.9115 0.316162 17.1912C0.372412 18.4662 0.578662 19.3427 0.873975 20.1021C1.18335 20.8943 1.59116 21.5646 2.26147 22.2302C2.9271 22.8958 3.59741 23.3083 4.38491 23.613C5.14897 23.9083 6.02085 24.1146 7.29585 24.1708C8.57554 24.2271 8.98335 24.2412 12.2412 24.2412C15.499 24.2412 15.9068 24.2271 17.1865 24.1708C18.4615 24.1146 19.338 23.9083 20.0974 23.613C20.8849 23.3083 21.5552 22.8958 22.2208 22.2302C22.8865 21.5646 23.299 20.8943 23.6037 20.1068C23.899 19.3427 24.1052 18.4708 24.1615 17.1959C24.2177 15.9162 24.2318 15.5084 24.2318 12.2505C24.2318 8.99273 24.2177 8.58491 24.1615 7.30522C24.1052 6.03022 23.899 5.15366 23.6037 4.39429C23.3083 3.59741 22.9005 2.9271 22.2302 2.26147C21.5646 1.59585 20.8943 1.18335 20.1068 0.878662C19.3427 0.58335 18.4708 0.3771 17.1959 0.32085C15.9115 0.259912 15.5037 0.24585 12.2459 0.24585Z" fill="white"/>
<path d="M12.2458 6.08179C8.84272 6.08179 6.08179 8.84272 6.08179 12.2458C6.08179 15.649 8.84272 18.4099 12.2458 18.4099C15.649 18.4099 18.4099 15.649 18.4099 12.2458C18.4099 8.84272 15.649 6.08179 12.2458 6.08179ZM12.2458 16.2443C10.038 16.2443 8.24741 14.4537 8.24741 12.2458C8.24741 10.038 10.038 8.24741 12.2458 8.24741C14.4537 8.24741 16.2443 10.038 16.2443 12.2458C16.2443 14.4537 14.4537 16.2443 12.2458 16.2443Z" fill="white"/>
<path d="M20.0927 5.83799C20.0927 6.63487 19.4458 7.27705 18.6537 7.27705C17.8568 7.27705 17.2146 6.63018 17.2146 5.83799C17.2146 5.04111 17.8615 4.39893 18.6537 4.39893C19.4458 4.39893 20.0927 5.0458 20.0927 5.83799Z" fill="white"/>
</g>
<defs>
<clipPath id="clip0_64_91">
<rect width="24" height="24" fill="white" transform="translate(0.24585 0.24585)"/>
</clipPath>
</defs>
</svg>
