<svg width="191" height="65" viewBox="0 0 191 65" fill="none" xmlns="http://www.w3.org/2000/svg">
<path d="M24.3484 8.39748C17.956 10.5594 12.6843 15.1722 9.69287 21.221C6.7015 27.2698 6.23552 34.2592 8.39746 40.6516C10.5594 47.044 15.1722 52.3158 21.221 55.3071C27.2698 58.2985 34.2592 58.7645 40.6516 56.6025L32.5 32.5L24.3484 8.39748Z" fill="#00A877"/>
<path d="M53.6144 29.5V9.76977H57.335V29.5H53.6144ZM61.159 29.5V15.5197H64.6541V17.3518H65.1614C65.3869 16.8633 65.8097 16.4029 66.4298 15.9707C67.0499 15.5197 67.9894 15.2942 69.2484 15.2942C70.3383 15.2942 71.2872 15.5479 72.0952 16.0553C72.922 16.5438 73.5609 17.2297 74.0118 18.1128C74.4628 18.9772 74.6883 19.9919 74.6883 21.1569V29.5H71.1369V21.4388C71.1369 20.3865 70.8738 19.5973 70.3477 19.0712C69.8403 18.545 69.1075 18.282 68.1492 18.282C67.0593 18.282 66.2137 18.6484 65.6124 19.3812C65.0111 20.0953 64.7105 21.1006 64.7105 22.3971V29.5H61.159ZM83.4976 29.5C82.5768 29.5 81.8252 29.2181 81.2427 28.6544C80.6789 28.0719 80.3971 27.3015 80.3971 26.3432V18.4511H76.902V15.5197H80.3971V11.1791H83.9485V15.5197H87.7818V18.4511H83.9485V25.7231C83.9485 26.2868 84.2116 26.5687 84.7377 26.5687H87.4436V29.5H83.4976ZM96.8712 29.8946C95.4807 29.8946 94.2499 29.6033 93.1788 29.0208C92.1265 28.4195 91.2997 27.5833 90.6984 26.5123C90.1159 25.4224 89.8247 24.1447 89.8247 22.679V22.3407C89.8247 20.8751 90.1159 19.6067 90.6984 18.5356C91.2809 17.4458 92.0983 16.6096 93.1506 16.0271C94.2029 15.4258 95.4243 15.1251 96.8148 15.1251C98.1865 15.1251 99.3797 15.4352 100.394 16.0553C101.409 16.6566 102.198 17.5021 102.762 18.592C103.326 19.6631 103.608 20.9127 103.608 22.3407V23.5527H93.4325C93.4701 24.5111 93.8271 25.2909 94.5035 25.8922C95.18 26.4935 96.0068 26.7941 96.9839 26.7941C97.9798 26.7941 98.7127 26.578 99.1824 26.1459C99.6522 25.7137 100.009 25.2345 100.253 24.7084L103.157 26.2304C102.894 26.719 102.508 27.2545 102.001 27.837C101.512 28.4007 100.855 28.8893 100.028 29.3027C99.2012 29.6973 98.1489 29.8946 96.8712 29.8946ZM93.4607 20.9033H99.9998C99.9247 20.0953 99.5958 19.447 99.0133 18.9584C98.4496 18.4699 97.7074 18.2256 96.7866 18.2256C95.8283 18.2256 95.0673 18.4699 94.5035 18.9584C93.9398 19.447 93.5922 20.0953 93.4607 20.9033ZM106.769 29.5V15.5197H110.264V17.0981H110.771C110.978 16.5344 111.316 16.121 111.786 15.858C112.274 15.5949 112.838 15.4633 113.477 15.4633H115.168V18.6202H113.421C112.519 18.6202 111.776 18.8645 111.194 19.353C110.611 19.8228 110.32 20.5556 110.32 21.5515V29.5H106.769ZM120.875 29.5L116.422 15.5197H120.199L123.44 26.9069H123.948L127.189 15.5197H130.966L126.513 29.5H120.875ZM133.386 29.5V15.5197H136.937V29.5H133.386ZM135.161 13.8849C134.523 13.8849 133.978 13.6782 133.527 13.2648C133.095 12.8514 132.878 12.3065 132.878 11.63C132.878 10.9536 133.095 10.4087 133.527 9.99525C133.978 9.58186 134.523 9.37516 135.161 9.37516C135.819 9.37516 136.364 9.58186 136.796 9.99525C137.228 10.4087 137.445 10.9536 137.445 11.63C137.445 12.3065 137.228 12.8514 136.796 13.2648C136.364 13.6782 135.819 13.8849 135.161 13.8849ZM147.243 29.8946C145.852 29.8946 144.621 29.6033 143.55 29.0208C142.498 28.4195 141.671 27.5833 141.07 26.5123C140.487 25.4224 140.196 24.1447 140.196 22.679V22.3407C140.196 20.8751 140.487 19.6067 141.07 18.5356C141.652 17.4458 142.47 16.6096 143.522 16.0271C144.574 15.4258 145.796 15.1251 147.186 15.1251C148.558 15.1251 149.751 15.4352 150.766 16.0553C151.781 16.6566 152.57 17.5021 153.134 18.592C153.697 19.6631 153.979 20.9127 153.979 22.3407V23.5527H143.804C143.842 24.5111 144.199 25.2909 144.875 25.8922C145.552 26.4935 146.378 26.7941 147.355 26.7941C148.351 26.7941 149.084 26.578 149.554 26.1459C150.024 25.7137 150.381 25.2345 150.625 24.7084L153.528 26.2304C153.265 26.719 152.88 27.2545 152.373 27.837C151.884 28.4007 151.226 28.8893 150.4 29.3027C149.573 29.6973 148.52 29.8946 147.243 29.8946ZM143.832 20.9033H150.371C150.296 20.0953 149.967 19.447 149.385 18.9584C148.821 18.4699 148.079 18.2256 147.158 18.2256C146.2 18.2256 145.439 18.4699 144.875 18.9584C144.311 19.447 143.964 20.0953 143.832 20.9033ZM158.213 29.5L156.24 15.5197H159.763L161.003 27.1042H161.51L163.314 15.5197H169.008L170.812 27.1042H171.319L172.559 15.5197H176.083L174.11 29.5H168.219L166.415 17.9155H165.907L164.103 29.5H158.213ZM61.2246 54.8946C59.6086 54.8946 58.2181 54.6033 57.0531 54.0208C55.9069 53.4195 55.0237 52.574 54.4036 51.4841C53.8023 50.3754 53.5017 49.0695 53.5017 47.5662V34.7698H57.2222V47.679C57.2222 48.8816 57.5604 49.8305 58.2369 50.5258C58.9322 51.221 59.9281 51.5687 61.2246 51.5687C62.5212 51.5687 63.5077 51.221 64.1842 50.5258C64.8794 49.8305 65.2271 48.8816 65.2271 47.679V34.7698H68.9476V47.5662C68.9476 49.0695 68.6376 50.3754 68.0175 51.4841C67.4162 52.574 66.533 53.4195 65.368 54.0208C64.2217 54.6033 62.8406 54.8946 61.2246 54.8946ZM72.6646 54.5V40.5197H76.1597V42.3518H76.6671C76.8926 41.8633 77.3153 41.4029 77.9354 40.9707C78.5555 40.5197 79.4951 40.2942 80.754 40.2942C81.8439 40.2942 82.7928 40.5479 83.6008 41.0553C84.4276 41.5438 85.0665 42.2297 85.5175 43.1128C85.9685 43.9772 86.1939 44.9919 86.1939 46.1569V54.5H82.6425V46.4388C82.6425 45.3865 82.3794 44.5973 81.8533 44.0712C81.3459 43.545 80.6131 43.282 79.6548 43.282C78.5649 43.282 77.7193 43.6484 77.118 44.3812C76.5167 45.0953 76.2161 46.1006 76.2161 47.3971V54.5H72.6646ZM90.0332 54.5V40.5197H93.5846V54.5H90.0332ZM91.8089 38.8849C91.17 38.8849 90.6251 38.6782 90.1741 38.2648C89.7419 37.8514 89.5258 37.3065 89.5258 36.63C89.5258 35.9536 89.7419 35.4087 90.1741 34.9953C90.6251 34.5819 91.17 34.3752 91.8089 34.3752C92.4666 34.3752 93.0115 34.5819 93.4437 34.9953C93.8759 35.4087 94.092 35.9536 94.092 36.63C94.092 37.3065 93.8759 37.8514 93.4437 38.2648C93.0115 38.6782 92.4666 38.8849 91.8089 38.8849ZM100.451 54.5L95.9981 40.5197H99.775L103.016 51.9069H103.524L106.765 40.5197H110.542L106.089 54.5H100.451ZM118.919 54.8946C117.529 54.8946 116.298 54.6033 115.227 54.0208C114.174 53.4195 113.348 52.5833 112.746 51.5123C112.164 50.4224 111.873 49.1447 111.873 47.679V47.3407C111.873 45.8751 112.164 44.6067 112.746 43.5356C113.329 42.4458 114.146 41.6096 115.198 41.0271C116.251 40.4258 117.472 40.1251 118.863 40.1251C120.234 40.1251 121.428 40.4352 122.442 41.0553C123.457 41.6566 124.246 42.5021 124.81 43.592C125.374 44.6631 125.656 45.9127 125.656 47.3407V48.5527H115.48C115.518 49.5111 115.875 50.2909 116.551 50.8922C117.228 51.4935 118.055 51.7941 119.032 51.7941C120.028 51.7941 120.761 51.578 121.23 51.1459C121.7 50.7137 122.057 50.2345 122.301 49.7084L125.205 51.2304C124.941 51.719 124.556 52.2545 124.049 52.837C123.56 53.4007 122.903 53.8893 122.076 54.3027C121.249 54.6973 120.197 54.8946 118.919 54.8946ZM115.509 45.9033H122.048C121.973 45.0953 121.644 44.447 121.061 43.9584C120.497 43.4699 119.755 43.2256 118.834 43.2256C117.876 43.2256 117.115 43.4699 116.551 43.9584C115.988 44.447 115.64 45.0953 115.509 45.9033ZM128.817 54.5V40.5197H132.312V42.0981H132.819C133.026 41.5344 133.364 41.121 133.834 40.858C134.322 40.5949 134.886 40.4633 135.525 40.4633H137.216V43.6202H135.468C134.566 43.6202 133.824 43.8645 133.242 44.353C132.659 44.8228 132.368 45.5556 132.368 46.5515V54.5H128.817ZM145.468 54.8946C143.645 54.8946 142.151 54.5 140.986 53.7108C139.821 52.9216 139.117 51.7941 138.872 50.3285L142.142 49.4829C142.273 50.1406 142.49 50.6573 142.79 51.0331C143.11 51.4089 143.495 51.6814 143.946 51.8505C144.416 52.0008 144.923 52.076 145.468 52.076C146.295 52.076 146.905 51.9351 147.3 51.6532C147.695 51.3526 147.892 50.9861 147.892 50.554C147.892 50.1218 147.704 49.7929 147.328 49.5674C146.952 49.3232 146.351 49.1259 145.524 48.9755L144.735 48.8346C143.758 48.6467 142.865 48.393 142.057 48.0736C141.249 47.7353 140.601 47.275 140.113 46.6925C139.624 46.11 139.38 45.3583 139.38 44.4376C139.38 43.0471 139.887 41.9854 140.902 41.2526C141.916 40.5009 143.251 40.1251 144.904 40.1251C146.464 40.1251 147.76 40.4727 148.794 41.168C149.827 41.8633 150.504 42.7746 150.823 43.902L147.525 44.9167C147.375 44.2027 147.065 43.6953 146.595 43.3947C146.144 43.094 145.581 42.9437 144.904 42.9437C144.228 42.9437 143.711 43.0659 143.354 43.3101C142.997 43.5356 142.818 43.8551 142.818 44.2685C142.818 44.7194 143.006 45.0577 143.382 45.2832C143.758 45.4899 144.265 45.6496 144.904 45.7623L145.693 45.9033C146.746 46.0912 147.695 46.3448 148.54 46.6643C149.405 46.9649 150.081 47.4065 150.57 47.989C151.077 48.5527 151.331 49.3232 151.331 50.3003C151.331 51.766 150.795 52.9028 149.724 53.7108C148.672 54.5 147.253 54.8946 145.468 54.8946ZM154.443 54.5V40.5197H157.994V54.5H154.443ZM156.218 38.8849C155.58 38.8849 155.035 38.6782 154.584 38.2648C154.151 37.8514 153.935 37.3065 153.935 36.63C153.935 35.9536 154.151 35.4087 154.584 34.9953C155.035 34.5819 155.58 34.3752 156.218 34.3752C156.876 34.3752 157.421 34.5819 157.853 34.9953C158.285 35.4087 158.502 35.9536 158.502 36.63C158.502 37.3065 158.285 37.8514 157.853 38.2648C157.421 38.6782 156.876 38.8849 156.218 38.8849ZM167.285 54.5C166.364 54.5 165.613 54.2181 165.03 53.6544C164.466 53.0719 164.185 52.3015 164.185 51.3432V43.4511H160.689V40.5197H164.185V36.1791H167.736V40.5197H171.569V43.4511H167.736V50.7231C167.736 51.2868 167.999 51.5687 168.525 51.5687H171.231V54.5H167.285ZM176.306 60.1372V57.0367H183.916C184.442 57.0367 184.706 56.7549 184.706 56.1912V52.6679H184.198C184.048 52.9873 183.813 53.3068 183.494 53.6262C183.174 53.9457 182.742 54.2087 182.197 54.4154C181.652 54.6221 180.957 54.7255 180.111 54.7255C179.021 54.7255 178.063 54.4812 177.236 53.9927C176.428 53.4853 175.799 52.79 175.348 51.9069C174.897 51.0237 174.671 50.009 174.671 48.8628V40.5197H178.223V48.5809C178.223 49.6332 178.476 50.4224 178.984 50.9486C179.51 51.4747 180.252 51.7378 181.21 51.7378C182.3 51.7378 183.146 51.3807 183.747 50.6667C184.348 49.9339 184.649 48.9192 184.649 47.6226V40.5197H188.201V56.9804C188.201 57.9387 187.919 58.6997 187.355 59.2634C186.791 59.846 186.04 60.1372 185.1 60.1372H176.306Z" fill="white"/>
</svg>
