<svg width="192" height="65" viewBox="0 0 192 65" fill="none" xmlns="http://www.w3.org/2000/svg">
<path d="M24.8484 8.39748C18.456 10.5594 13.1843 15.1722 10.1929 21.221C7.2015 27.2698 6.73552 34.2592 8.89746 40.6516C11.0594 47.044 15.6722 52.3158 21.721 55.3071C27.7698 58.2985 34.7592 58.7645 41.1516 56.6025L33 32.5L24.8484 8.39748Z" fill="#00A877"/>
<path d="M54.1144 29.5V9.76977H57.835V29.5H54.1144ZM61.659 29.5V15.5197H65.1541V17.3518H65.6615C65.8869 16.8633 66.3097 16.4029 66.9298 15.9707C67.5499 15.5197 68.4895 15.2942 69.7484 15.2942C70.8383 15.2942 71.7872 15.5479 72.5952 16.0553C73.422 16.5438 74.0609 17.2297 74.5119 18.1128C74.9629 18.9772 75.1883 19.9919 75.1883 21.1569V29.5H71.6369V21.4388C71.6369 20.3865 71.3738 19.5973 70.8477 19.0712C70.3403 18.545 69.6075 18.282 68.6492 18.282C67.5593 18.282 66.7137 18.6484 66.1124 19.3812C65.5111 20.0953 65.2105 21.1006 65.2105 22.3971V29.5H61.659ZM83.9976 29.5C83.0768 29.5 82.3252 29.2181 81.7427 28.6544C81.179 28.0719 80.8971 27.3015 80.8971 26.3432V18.4511H77.402V15.5197H80.8971V11.1791H84.4486V15.5197H88.2819V18.4511H84.4486V25.7231C84.4486 26.2868 84.7116 26.5687 85.2378 26.5687H87.9436V29.5H83.9976ZM97.3712 29.8946C95.9807 29.8946 94.7499 29.6033 93.6788 29.0208C92.6266 28.4195 91.7998 27.5833 91.1985 26.5123C90.6159 25.4224 90.3247 24.1447 90.3247 22.679V22.3407C90.3247 20.8751 90.6159 19.6067 91.1985 18.5356C91.781 17.4458 92.5984 16.6096 93.6506 16.0271C94.7029 15.4258 95.9243 15.1251 97.3148 15.1251C98.6866 15.1251 99.8798 15.4352 100.894 16.0553C101.909 16.6566 102.698 17.5021 103.262 18.592C103.826 19.6631 104.108 20.9127 104.108 22.3407V23.5527H93.9325C93.9701 24.5111 94.3271 25.2909 95.0036 25.8922C95.68 26.4935 96.5068 26.7941 97.4839 26.7941C98.4799 26.7941 99.2127 26.578 99.6825 26.1459C100.152 25.7137 100.509 25.2345 100.754 24.7084L103.657 26.2304C103.394 26.719 103.008 27.2545 102.501 27.837C102.013 28.4007 101.355 28.8893 100.528 29.3027C99.7013 29.6973 98.649 29.8946 97.3712 29.8946ZM93.9607 20.9033H100.5C100.425 20.0953 100.096 19.447 99.5133 18.9584C98.9496 18.4699 98.2074 18.2256 97.2866 18.2256C96.3283 18.2256 95.5673 18.4699 95.0036 18.9584C94.4399 19.447 94.0922 20.0953 93.9607 20.9033ZM107.269 29.5V15.5197H110.764V17.0981H111.271C111.478 16.5344 111.816 16.121 112.286 15.858C112.774 15.5949 113.338 15.4633 113.977 15.4633H115.668V18.6202H113.921C113.019 18.6202 112.276 18.8645 111.694 19.353C111.111 19.8228 110.82 20.5556 110.82 21.5515V29.5H107.269ZM121.375 29.5L116.922 15.5197H120.699L123.94 26.9069H124.448L127.689 15.5197H131.466L127.013 29.5H121.375ZM133.886 29.5V15.5197H137.437V29.5H133.886ZM135.662 13.8849C135.023 13.8849 134.478 13.6782 134.027 13.2648C133.595 12.8514 133.378 12.3065 133.378 11.63C133.378 10.9536 133.595 10.4087 134.027 9.99525C134.478 9.58186 135.023 9.37516 135.662 9.37516C136.319 9.37516 136.864 9.58186 137.296 9.99525C137.728 10.4087 137.945 10.9536 137.945 11.63C137.945 12.3065 137.728 12.8514 137.296 13.2648C136.864 13.6782 136.319 13.8849 135.662 13.8849ZM147.743 29.8946C146.352 29.8946 145.121 29.6033 144.05 29.0208C142.998 28.4195 142.171 27.5833 141.57 26.5123C140.987 25.4224 140.696 24.1447 140.696 22.679V22.3407C140.696 20.8751 140.987 19.6067 141.57 18.5356C142.153 17.4458 142.97 16.6096 144.022 16.0271C145.074 15.4258 146.296 15.1251 147.686 15.1251C149.058 15.1251 150.251 15.4352 151.266 16.0553C152.281 16.6566 153.07 17.5021 153.634 18.592C154.197 19.6631 154.479 20.9127 154.479 22.3407V23.5527H144.304C144.342 24.5111 144.699 25.2909 145.375 25.8922C146.052 26.4935 146.878 26.7941 147.855 26.7941C148.851 26.7941 149.584 26.578 150.054 26.1459C150.524 25.7137 150.881 25.2345 151.125 24.7084L154.028 26.2304C153.765 26.719 153.38 27.2545 152.873 27.837C152.384 28.4007 151.726 28.8893 150.9 29.3027C150.073 29.6973 149.021 29.8946 147.743 29.8946ZM144.332 20.9033H150.871C150.796 20.0953 150.467 19.447 149.885 18.9584C149.321 18.4699 148.579 18.2256 147.658 18.2256C146.7 18.2256 145.939 18.4699 145.375 18.9584C144.811 19.447 144.464 20.0953 144.332 20.9033ZM158.713 29.5L156.74 15.5197H160.263L161.503 27.1042H162.01L163.814 15.5197H169.508L171.312 27.1042H171.819L173.059 15.5197H176.583L174.61 29.5H168.719L166.915 17.9155H166.407L164.604 29.5H158.713ZM61.7247 54.8946C60.1087 54.8946 58.7182 54.6033 57.5531 54.0208C56.4069 53.4195 55.5237 52.574 54.9036 51.4841C54.3023 50.3754 54.0017 49.0695 54.0017 47.5662V34.7698H57.7222V47.679C57.7222 48.8816 58.0605 49.8305 58.7369 50.5258C59.4322 51.221 60.4281 51.5687 61.7247 51.5687C63.0212 51.5687 64.0077 51.221 64.6842 50.5258C65.3795 49.8305 65.7271 48.8816 65.7271 47.679V34.7698H69.4476V47.5662C69.4476 49.0695 69.1376 50.3754 68.5175 51.4841C67.9162 52.574 67.033 53.4195 65.868 54.0208C64.7218 54.6033 63.3407 54.8946 61.7247 54.8946ZM73.1647 54.5V40.5197H76.6597V42.3518H77.1671C77.3926 41.8633 77.8154 41.4029 78.4355 40.9707C79.0556 40.5197 79.9951 40.2942 81.2541 40.2942C82.3439 40.2942 83.2929 40.5479 84.1009 41.0553C84.9277 41.5438 85.5665 42.2297 86.0175 43.1128C86.4685 43.9772 86.694 44.9919 86.694 46.1569V54.5H83.1425V46.4388C83.1425 45.3865 82.8795 44.5973 82.3533 44.0712C81.846 43.545 81.1131 43.282 80.1548 43.282C79.065 43.282 78.2194 43.6484 77.6181 44.3812C77.0168 45.0953 76.7161 46.1006 76.7161 47.3971V54.5H73.1647ZM90.5332 54.5V40.5197H94.0847V54.5H90.5332ZM92.3089 38.8849C91.6701 38.8849 91.1251 38.6782 90.6742 38.2648C90.242 37.8514 90.0259 37.3065 90.0259 36.63C90.0259 35.9536 90.242 35.4087 90.6742 34.9953C91.1251 34.5819 91.6701 34.3752 92.3089 34.3752C92.9666 34.3752 93.5115 34.5819 93.9437 34.9953C94.3759 35.4087 94.592 35.9536 94.592 36.63C94.592 37.3065 94.3759 37.8514 93.9437 38.2648C93.5115 38.6782 92.9666 38.8849 92.3089 38.8849ZM100.951 54.5L96.4981 40.5197H100.275L103.516 51.9069H104.024L107.265 40.5197H111.042L106.589 54.5H100.951ZM119.419 54.8946C118.029 54.8946 116.798 54.6033 115.727 54.0208C114.674 53.4195 113.848 52.5833 113.246 51.5123C112.664 50.4224 112.373 49.1447 112.373 47.679V47.3407C112.373 45.8751 112.664 44.6067 113.246 43.5356C113.829 42.4458 114.646 41.6096 115.699 41.0271C116.751 40.4258 117.972 40.1251 119.363 40.1251C120.734 40.1251 121.928 40.4352 122.942 41.0553C123.957 41.6566 124.746 42.5021 125.31 43.592C125.874 44.6631 126.156 45.9127 126.156 47.3407V48.5527H115.98C116.018 49.5111 116.375 50.2909 117.051 50.8922C117.728 51.4935 118.555 51.7941 119.532 51.7941C120.528 51.7941 121.261 51.578 121.73 51.1459C122.2 50.7137 122.557 50.2345 122.801 49.7084L125.705 51.2304C125.441 51.719 125.056 52.2545 124.549 52.837C124.06 53.4007 123.403 53.8893 122.576 54.3027C121.749 54.6973 120.697 54.8946 119.419 54.8946ZM116.009 45.9033H122.548C122.473 45.0953 122.144 44.447 121.561 43.9584C120.997 43.4699 120.255 43.2256 119.335 43.2256C118.376 43.2256 117.615 43.4699 117.051 43.9584C116.488 44.447 116.14 45.0953 116.009 45.9033ZM129.317 54.5V40.5197H132.812V42.0981H133.319C133.526 41.5344 133.864 41.121 134.334 40.858C134.822 40.5949 135.386 40.4633 136.025 40.4633H137.716V43.6202H135.968C135.067 43.6202 134.324 43.8645 133.742 44.353C133.159 44.8228 132.868 45.5556 132.868 46.5515V54.5H129.317ZM145.968 54.8946C144.145 54.8946 142.651 54.5 141.486 53.7108C140.321 52.9216 139.617 51.7941 139.372 50.3285L142.642 49.4829C142.773 50.1406 142.99 50.6573 143.29 51.0331C143.61 51.4089 143.995 51.6814 144.446 51.8505C144.916 52.0008 145.423 52.076 145.968 52.076C146.795 52.076 147.405 51.9351 147.8 51.6532C148.195 51.3526 148.392 50.9861 148.392 50.554C148.392 50.1218 148.204 49.7929 147.828 49.5674C147.452 49.3232 146.851 49.1259 146.024 48.9755L145.235 48.8346C144.258 48.6467 143.365 48.393 142.557 48.0736C141.749 47.7353 141.101 47.275 140.613 46.6925C140.124 46.11 139.88 45.3583 139.88 44.4376C139.88 43.0471 140.387 41.9854 141.402 41.2526C142.416 40.5009 143.751 40.1251 145.404 40.1251C146.964 40.1251 148.26 40.4727 149.294 41.168C150.327 41.8633 151.004 42.7746 151.323 43.902L148.025 44.9167C147.875 44.2027 147.565 43.6953 147.095 43.3947C146.644 43.094 146.081 42.9437 145.404 42.9437C144.728 42.9437 144.211 43.0659 143.854 43.3101C143.497 43.5356 143.318 43.8551 143.318 44.2685C143.318 44.7194 143.506 45.0577 143.882 45.2832C144.258 45.4899 144.765 45.6496 145.404 45.7623L146.193 45.9033C147.246 46.0912 148.195 46.3448 149.04 46.6643C149.905 46.9649 150.581 47.4065 151.07 47.989C151.577 48.5527 151.831 49.3232 151.831 50.3003C151.831 51.766 151.295 52.9028 150.224 53.7108C149.172 54.5 147.753 54.8946 145.968 54.8946ZM154.943 54.5V40.5197H158.494V54.5H154.943ZM156.718 38.8849C156.08 38.8849 155.535 38.6782 155.084 38.2648C154.651 37.8514 154.435 37.3065 154.435 36.63C154.435 35.9536 154.651 35.4087 155.084 34.9953C155.535 34.5819 156.08 34.3752 156.718 34.3752C157.376 34.3752 157.921 34.5819 158.353 34.9953C158.785 35.4087 159.002 35.9536 159.002 36.63C159.002 37.3065 158.785 37.8514 158.353 38.2648C157.921 38.6782 157.376 38.8849 156.718 38.8849ZM167.785 54.5C166.864 54.5 166.113 54.2181 165.53 53.6544C164.966 53.0719 164.685 52.3015 164.685 51.3432V43.4511H161.189V40.5197H164.685V36.1791H168.236V40.5197H172.069V43.4511H168.236V50.7231C168.236 51.2868 168.499 51.5687 169.025 51.5687H171.731V54.5H167.785ZM176.806 60.1372V57.0367H184.416C184.942 57.0367 185.206 56.7549 185.206 56.1912V52.6679H184.698C184.548 52.9873 184.313 53.3068 183.994 53.6262C183.674 53.9457 183.242 54.2087 182.697 54.4154C182.152 54.6221 181.457 54.7255 180.611 54.7255C179.521 54.7255 178.563 54.4812 177.736 53.9927C176.928 53.4853 176.299 52.79 175.848 51.9069C175.397 51.0237 175.171 50.009 175.171 48.8628V40.5197H178.723V48.5809C178.723 49.6332 178.976 50.4224 179.484 50.9486C180.01 51.4747 180.752 51.7378 181.71 51.7378C182.8 51.7378 183.646 51.3807 184.247 50.6667C184.849 49.9339 185.149 48.9192 185.149 47.6226V40.5197H188.701V56.9804C188.701 57.9387 188.419 58.6997 187.855 59.2634C187.291 59.846 186.54 60.1372 185.6 60.1372H176.806Z" fill="black"/>
</svg>
