<svg width="32" height="32" viewBox="0 0 32 32" fill="none" xmlns="http://www.w3.org/2000/svg">
<path d="M23.5324 8.46659C22.5456 7.47305 21.3719 6.68467 20.0789 6.14689C18.786 5.60912 17.3994 5.33259 15.999 5.33325C10.1057 5.33325 5.3457 10.1066 5.3457 15.9999C5.3457 21.8933 10.1057 26.6666 15.999 26.6666C20.9724 26.6666 25.119 23.2666 26.3057 18.6666H23.5324C22.9831 20.2259 21.9635 21.5764 20.6142 22.5317C19.2648 23.487 17.6523 24 15.999 23.9999C11.5857 23.9999 7.99904 20.4133 7.99904 15.9999C7.99904 11.5866 11.5857 7.99992 15.999 7.99992C18.2124 7.99992 20.1857 8.91992 21.6257 10.3733L17.3324 14.6666H26.6657V5.33325L23.5324 8.46659Z" fill="#00A877"/>
</svg>
