<svg width="187" height="59" viewBox="0 0 187 59" fill="none" xmlns="http://www.w3.org/2000/svg">
<rect x="0.25415" width="186" height="59" rx="12" fill="#00A877"/>
<path d="M64.0522 37.808C62.8642 37.808 61.8155 37.5953 60.9062 37.17C59.9968 36.7447 59.2855 36.136 58.7722 35.344C58.2588 34.552 58.0022 33.5987 58.0022 32.484V31.868H60.8622V32.484C60.8622 33.408 61.1482 34.1047 61.7202 34.574C62.2922 35.0287 63.0695 35.256 64.0522 35.256C65.0495 35.256 65.7902 35.058 66.2742 34.662C66.7728 34.266 67.0222 33.76 67.0222 33.144C67.0222 32.7187 66.8975 32.374 66.6482 32.11C66.4135 31.846 66.0615 31.6333 65.5922 31.472C65.1375 31.296 64.5802 31.1347 63.9202 30.988L63.4142 30.878C62.3582 30.6433 61.4488 30.35 60.6862 29.998C59.9382 29.6313 59.3588 29.1547 58.9482 28.568C58.5522 27.9813 58.3542 27.2187 58.3542 26.28C58.3542 25.3413 58.5742 24.542 59.0142 23.882C59.4688 23.2073 60.0995 22.694 60.9062 22.342C61.7275 21.9753 62.6882 21.792 63.7882 21.792C64.8882 21.792 65.8635 21.9827 66.7142 22.364C67.5795 22.7307 68.2542 23.288 68.7382 24.036C69.2368 24.7693 69.4862 25.6933 69.4862 26.808V27.468H66.6262V26.808C66.6262 26.2213 66.5088 25.752 66.2742 25.4C66.0542 25.0333 65.7315 24.7693 65.3062 24.608C64.8808 24.432 64.3748 24.344 63.7882 24.344C62.9082 24.344 62.2555 24.5127 61.8302 24.85C61.4195 25.1727 61.2142 25.62 61.2142 26.192C61.2142 26.5733 61.3095 26.896 61.5002 27.16C61.7055 27.424 62.0062 27.644 62.4022 27.82C62.7982 27.996 63.3042 28.15 63.9202 28.282L64.4262 28.392C65.5262 28.6267 66.4795 28.9273 67.2862 29.294C68.1075 29.6607 68.7455 30.1447 69.2002 30.746C69.6548 31.3473 69.8822 32.1173 69.8822 33.056C69.8822 33.9947 69.6402 34.8233 69.1562 35.542C68.6868 36.246 68.0122 36.8033 67.1322 37.214C66.2668 37.61 65.2402 37.808 64.0522 37.808ZM72.1359 37.5V26.588H74.9079V37.5H72.1359ZM73.5219 25.312C73.0233 25.312 72.5979 25.1507 72.2459 24.828C71.9086 24.5053 71.7399 24.08 71.7399 23.552C71.7399 23.024 71.9086 22.5987 72.2459 22.276C72.5979 21.9533 73.0233 21.792 73.5219 21.792C74.0353 21.792 74.4606 21.9533 74.7979 22.276C75.1353 22.5987 75.3039 23.024 75.3039 23.552C75.3039 24.08 75.1353 24.5053 74.7979 24.828C74.4606 25.1507 74.0353 25.312 73.5219 25.312ZM77.4517 32.088V31.736C77.4517 30.592 77.679 29.6167 78.1337 28.81C78.5884 27.9887 79.1897 27.3653 79.9377 26.94C80.7004 26.5 81.529 26.28 82.4237 26.28C83.421 26.28 84.1764 26.456 84.6897 26.808C85.203 27.16 85.577 27.5267 85.8117 27.908H86.2077V26.588H88.9357V39.436C88.9357 40.184 88.7157 40.778 88.2757 41.218C87.8357 41.6727 87.249 41.9 86.5157 41.9H79.2117V39.48H85.5477C85.9584 39.48 86.1637 39.26 86.1637 38.82V35.982H85.7677C85.621 36.2167 85.4157 36.4587 85.1517 36.708C84.8877 36.9427 84.5357 37.1407 84.0957 37.302C83.6557 37.4633 83.0984 37.544 82.4237 37.544C81.529 37.544 80.7004 37.3313 79.9377 36.906C79.1897 36.466 78.5884 35.8427 78.1337 35.036C77.679 34.2147 77.4517 33.232 77.4517 32.088ZM83.2157 35.124C84.0664 35.124 84.7777 34.8527 85.3497 34.31C85.9217 33.7673 86.2077 33.0047 86.2077 32.022V31.802C86.2077 30.8047 85.9217 30.042 85.3497 29.514C84.7924 28.9713 84.081 28.7 83.2157 28.7C82.365 28.7 81.6537 28.9713 81.0817 29.514C80.5097 30.042 80.2237 30.8047 80.2237 31.802V32.022C80.2237 33.0047 80.5097 33.7673 81.0817 34.31C81.6537 34.8527 82.365 35.124 83.2157 35.124ZM92.009 37.5V26.588H94.737V28.018H95.133C95.309 27.6367 95.639 27.2773 96.123 26.94C96.607 26.588 97.3403 26.412 98.323 26.412C99.1737 26.412 99.9143 26.61 100.545 27.006C101.19 27.3873 101.689 27.9227 102.041 28.612C102.393 29.2867 102.569 30.0787 102.569 30.988V37.5H99.797V31.208C99.797 30.3867 99.5917 29.7707 99.181 29.36C98.785 28.9493 98.213 28.744 97.465 28.744C96.6143 28.744 95.9543 29.03 95.485 29.602C95.0157 30.1593 94.781 30.944 94.781 31.956V37.5H92.009ZM111.152 37.5V26.588H113.924V37.5H111.152ZM112.538 25.312C112.039 25.312 111.614 25.1507 111.262 24.828C110.924 24.5053 110.756 24.08 110.756 23.552C110.756 23.024 110.924 22.5987 111.262 22.276C111.614 21.9533 112.039 21.792 112.538 21.792C113.051 21.792 113.476 21.9533 113.814 22.276C114.151 22.5987 114.32 23.024 114.32 23.552C114.32 24.08 114.151 24.5053 113.814 24.828C113.476 25.1507 113.051 25.312 112.538 25.312ZM116.995 37.5V26.588H119.723V28.018H120.119C120.295 27.6367 120.625 27.2773 121.109 26.94C121.593 26.588 122.327 26.412 123.309 26.412C124.16 26.412 124.901 26.61 125.531 27.006C126.177 27.3873 126.675 27.9227 127.027 28.612C127.379 29.2867 127.555 30.0787 127.555 30.988V37.5H124.783V31.208C124.783 30.3867 124.578 29.7707 124.167 29.36C123.771 28.9493 123.199 28.744 122.451 28.744C121.601 28.744 120.941 29.03 120.471 29.602C120.002 30.1593 119.767 30.944 119.767 31.956V37.5H116.995Z" fill="white"/>
</svg>
