<svg width="187" height="59" viewBox="0 0 187 59" fill="none" xmlns="http://www.w3.org/2000/svg">
<path d="M60.0522 37.808C58.8642 37.808 57.8155 37.5953 56.9062 37.17C55.9968 36.7447 55.2855 36.136 54.7722 35.344C54.2588 34.552 54.0022 33.5987 54.0022 32.484V31.868H56.8622V32.484C56.8622 33.408 57.1482 34.1047 57.7202 34.574C58.2922 35.0287 59.0695 35.256 60.0522 35.256C61.0495 35.256 61.7902 35.058 62.2742 34.662C62.7728 34.266 63.0222 33.76 63.0222 33.144C63.0222 32.7187 62.8975 32.374 62.6482 32.11C62.4135 31.846 62.0615 31.6333 61.5922 31.472C61.1375 31.296 60.5802 31.1347 59.9202 30.988L59.4142 30.878C58.3582 30.6433 57.4488 30.35 56.6862 29.998C55.9382 29.6313 55.3588 29.1547 54.9482 28.568C54.5522 27.9813 54.3542 27.2187 54.3542 26.28C54.3542 25.3413 54.5742 24.542 55.0142 23.882C55.4688 23.2073 56.0995 22.694 56.9062 22.342C57.7275 21.9753 58.6882 21.792 59.7882 21.792C60.8882 21.792 61.8635 21.9827 62.7142 22.364C63.5795 22.7307 64.2542 23.288 64.7382 24.036C65.2368 24.7693 65.4862 25.6933 65.4862 26.808V27.468H62.6262V26.808C62.6262 26.2213 62.5088 25.752 62.2742 25.4C62.0542 25.0333 61.7315 24.7693 61.3062 24.608C60.8808 24.432 60.3748 24.344 59.7882 24.344C58.9082 24.344 58.2555 24.5127 57.8302 24.85C57.4195 25.1727 57.2142 25.62 57.2142 26.192C57.2142 26.5733 57.3095 26.896 57.5002 27.16C57.7055 27.424 58.0062 27.644 58.4022 27.82C58.7982 27.996 59.3042 28.15 59.9202 28.282L60.4262 28.392C61.5262 28.6267 62.4795 28.9273 63.2862 29.294C64.1075 29.6607 64.7455 30.1447 65.2002 30.746C65.6548 31.3473 65.8822 32.1173 65.8822 33.056C65.8822 33.9947 65.6402 34.8233 65.1562 35.542C64.6868 36.246 64.0122 36.8033 63.1322 37.214C62.2668 37.61 61.2402 37.808 60.0522 37.808ZM68.1359 37.5V26.588H70.9079V37.5H68.1359ZM69.5219 25.312C69.0233 25.312 68.5979 25.1507 68.2459 24.828C67.9086 24.5053 67.7399 24.08 67.7399 23.552C67.7399 23.024 67.9086 22.5987 68.2459 22.276C68.5979 21.9533 69.0233 21.792 69.5219 21.792C70.0353 21.792 70.4606 21.9533 70.7979 22.276C71.1353 22.5987 71.3039 23.024 71.3039 23.552C71.3039 24.08 71.1353 24.5053 70.7979 24.828C70.4606 25.1507 70.0353 25.312 69.5219 25.312ZM73.4517 32.088V31.736C73.4517 30.592 73.679 29.6167 74.1337 28.81C74.5884 27.9887 75.1897 27.3653 75.9377 26.94C76.7004 26.5 77.529 26.28 78.4237 26.28C79.421 26.28 80.1764 26.456 80.6897 26.808C81.203 27.16 81.577 27.5267 81.8117 27.908H82.2077V26.588H84.9357V39.436C84.9357 40.184 84.7157 40.778 84.2757 41.218C83.8357 41.6727 83.249 41.9 82.5157 41.9H75.2117V39.48H81.5477C81.9584 39.48 82.1637 39.26 82.1637 38.82V35.982H81.7677C81.621 36.2167 81.4157 36.4587 81.1517 36.708C80.8877 36.9427 80.5357 37.1407 80.0957 37.302C79.6557 37.4633 79.0984 37.544 78.4237 37.544C77.529 37.544 76.7004 37.3313 75.9377 36.906C75.1897 36.466 74.5884 35.8427 74.1337 35.036C73.679 34.2147 73.4517 33.232 73.4517 32.088ZM79.2157 35.124C80.0664 35.124 80.7777 34.8527 81.3497 34.31C81.9217 33.7673 82.2077 33.0047 82.2077 32.022V31.802C82.2077 30.8047 81.9217 30.042 81.3497 29.514C80.7924 28.9713 80.081 28.7 79.2157 28.7C78.365 28.7 77.6537 28.9713 77.0817 29.514C76.5097 30.042 76.2237 30.8047 76.2237 31.802V32.022C76.2237 33.0047 76.5097 33.7673 77.0817 34.31C77.6537 34.8527 78.365 35.124 79.2157 35.124ZM88.009 37.5V26.588H90.737V28.018H91.133C91.309 27.6367 91.639 27.2773 92.123 26.94C92.607 26.588 93.3403 26.412 94.323 26.412C95.1737 26.412 95.9143 26.61 96.545 27.006C97.1903 27.3873 97.689 27.9227 98.041 28.612C98.393 29.2867 98.569 30.0787 98.569 30.988V37.5H95.797V31.208C95.797 30.3867 95.5917 29.7707 95.181 29.36C94.785 28.9493 94.213 28.744 93.465 28.744C92.6143 28.744 91.9543 29.03 91.485 29.602C91.0157 30.1593 90.781 30.944 90.781 31.956V37.5H88.009ZM111.31 37.676C110.459 37.676 109.711 37.4853 109.066 37.104C108.435 36.708 107.944 36.1653 107.592 35.476C107.24 34.7867 107.064 33.9947 107.064 33.1V26.588H109.836V32.88C109.836 33.7013 110.034 34.3173 110.43 34.728C110.84 35.1387 111.42 35.344 112.168 35.344C113.018 35.344 113.678 35.0653 114.148 34.508C114.617 33.936 114.852 33.144 114.852 32.132V26.588H117.624V37.5H114.896V36.07H114.5C114.324 36.4367 113.994 36.796 113.51 37.148C113.026 37.5 112.292 37.676 111.31 37.676ZM120.708 41.9V26.588H123.436V27.908H123.832C124.082 27.4827 124.47 27.1087 124.998 26.786C125.526 26.4487 126.282 26.28 127.264 26.28C128.144 26.28 128.958 26.5 129.706 26.94C130.454 27.3653 131.056 27.996 131.51 28.832C131.965 29.668 132.192 30.68 132.192 31.868V32.22C132.192 33.408 131.965 34.42 131.51 35.256C131.056 36.092 130.454 36.73 129.706 37.17C128.958 37.5953 128.144 37.808 127.264 37.808C126.604 37.808 126.047 37.7273 125.592 37.566C125.152 37.4193 124.793 37.2287 124.514 36.994C124.25 36.7447 124.038 36.4953 123.876 36.246H123.48V41.9H120.708ZM126.428 35.388C127.294 35.388 128.005 35.1167 128.562 34.574C129.134 34.0167 129.42 33.21 129.42 32.154V31.934C129.42 30.878 129.134 30.0787 128.562 29.536C127.99 28.9787 127.279 28.7 126.428 28.7C125.578 28.7 124.866 28.9787 124.294 29.536C123.722 30.0787 123.436 30.878 123.436 31.934V32.154C123.436 33.21 123.722 34.0167 124.294 34.574C124.866 35.1167 125.578 35.388 126.428 35.388Z" fill="#00A877"/>
</svg>
