<svg width="286" height="137" viewBox="0 0 286 137" fill="none" xmlns="http://www.w3.org/2000/svg">
<g filter="url(#filter0_d_15_378)">
<rect x="39" y="39" width="208" height="59" rx="12" fill="#00A877" shape-rendering="crispEdges"/>
<path d="M75.75 76.264C74.298 76.264 73.0293 75.934 71.944 75.274C70.8587 74.614 70.0153 73.69 69.414 72.502C68.8127 71.314 68.512 69.928 68.512 68.344C68.512 66.7747 68.82 65.3887 69.436 64.186C70.052 62.9833 70.9247 62.0447 72.054 61.37C73.198 60.6807 74.5473 60.336 76.102 60.336C77.862 60.336 79.3287 60.7613 80.502 61.612C81.6753 62.4627 82.438 63.636 82.79 65.132H80.15C79.9153 64.3107 79.4533 63.6653 78.764 63.196C78.0747 62.7267 77.1873 62.492 76.102 62.492C74.4887 62.492 73.22 63.0127 72.296 64.054C71.372 65.0953 70.91 66.5327 70.91 68.366C70.91 70.1993 71.3647 71.6293 72.274 72.656C73.1833 73.6827 74.3933 74.196 75.904 74.196C77.4293 74.196 78.5733 73.7633 79.336 72.898C80.1133 72.0327 80.568 70.8813 80.7 69.444H76.52V67.64H83.054V76H80.92L80.722 73.734C80.2087 74.5407 79.5633 75.164 78.786 75.604C78.0087 76.044 76.9967 76.264 75.75 76.264ZM90.9003 76.264C89.8296 76.264 88.8763 76.0293 88.0403 75.56C87.2189 75.076 86.5736 74.4087 86.1043 73.558C85.6349 72.7073 85.4003 71.7173 85.4003 70.588C85.4003 69.444 85.6276 68.4393 86.0823 67.574C86.5516 66.7087 87.1969 66.034 88.0183 65.55C88.8543 65.066 89.8223 64.824 90.9223 64.824C91.9929 64.824 92.9243 65.066 93.7163 65.55C94.5083 66.0193 95.1243 66.65 95.5643 67.442C96.0043 68.234 96.2243 69.1067 96.2243 70.06C96.2243 70.2067 96.2169 70.368 96.2023 70.544C96.2023 70.7053 96.1949 70.8887 96.1803 71.094H87.6883C87.7616 72.15 88.1063 72.9567 88.7223 73.514C89.3529 74.0567 90.0789 74.328 90.9003 74.328C91.5603 74.328 92.1103 74.1813 92.5503 73.888C93.0049 73.58 93.3423 73.1693 93.5623 72.656H95.8943C95.6009 73.6827 95.0143 74.5407 94.1343 75.23C93.2689 75.9193 92.1909 76.264 90.9003 76.264ZM90.9003 66.738C90.1229 66.738 89.4336 66.9727 88.8323 67.442C88.2309 67.8967 87.8643 68.586 87.7323 69.51H93.8923C93.8483 68.6593 93.5476 67.9847 92.9903 67.486C92.4329 66.9873 91.7363 66.738 90.9003 66.738ZM102.941 76C101.87 76 101.019 75.7433 100.389 75.23C99.758 74.702 99.4426 73.7707 99.4426 72.436V67.046H97.5726V65.088H99.4426L99.7286 62.316H101.775V65.088H104.855V67.046H101.775V72.436C101.775 73.0373 101.899 73.4553 102.149 73.69C102.413 73.91 102.86 74.02 103.491 74.02H104.745V76H102.941ZM117.972 76.264C116.843 76.264 115.853 76.066 115.002 75.67C114.151 75.274 113.484 74.7093 113 73.976C112.531 73.2427 112.289 72.37 112.274 71.358H114.738C114.753 72.1793 115.039 72.876 115.596 73.448C116.153 74.02 116.938 74.306 117.95 74.306C118.845 74.306 119.541 74.0933 120.04 73.668C120.553 73.228 120.81 72.6707 120.81 71.996C120.81 71.4533 120.685 71.0133 120.436 70.676C120.201 70.3387 119.871 70.06 119.446 69.84C119.035 69.62 118.559 69.422 118.016 69.246C117.473 69.07 116.901 68.8793 116.3 68.674C115.112 68.278 114.217 67.7647 113.616 67.134C113.029 66.5033 112.736 65.6747 112.736 64.648C112.721 63.7827 112.919 63.0273 113.33 62.382C113.755 61.7367 114.342 61.238 115.09 60.886C115.853 60.5193 116.74 60.336 117.752 60.336C118.749 60.336 119.622 60.5193 120.37 60.886C121.133 61.2527 121.727 61.766 122.152 62.426C122.577 63.0713 122.797 63.8267 122.812 64.692H120.348C120.348 64.296 120.245 63.922 120.04 63.57C119.835 63.2033 119.534 62.9027 119.138 62.668C118.742 62.4333 118.258 62.316 117.686 62.316C116.953 62.3013 116.344 62.4847 115.86 62.866C115.391 63.2473 115.156 63.7753 115.156 64.45C115.156 65.0513 115.332 65.5133 115.684 65.836C116.036 66.1587 116.52 66.43 117.136 66.65C117.752 66.8553 118.456 67.0973 119.248 67.376C120.011 67.6253 120.693 67.926 121.294 68.278C121.895 68.63 122.372 69.092 122.724 69.664C123.091 70.236 123.274 70.962 123.274 71.842C123.274 72.6193 123.076 73.3453 122.68 74.02C122.284 74.68 121.69 75.2227 120.898 75.648C120.106 76.0587 119.131 76.264 117.972 76.264ZM130.312 76C129.241 76 128.39 75.7433 127.76 75.23C127.129 74.702 126.814 73.7707 126.814 72.436V67.046H124.944V65.088H126.814L127.1 62.316H129.146V65.088H132.226V67.046H129.146V72.436C129.146 73.0373 129.27 73.4553 129.52 73.69C129.784 73.91 130.231 74.02 130.862 74.02H132.116V76H130.312ZM138.326 76.264C137.402 76.264 136.64 76.11 136.038 75.802C135.437 75.494 134.99 75.0907 134.696 74.592C134.403 74.0787 134.256 73.5213 134.256 72.92C134.256 71.864 134.667 71.028 135.488 70.412C136.31 69.796 137.483 69.488 139.008 69.488H141.868V69.29C141.868 68.4393 141.634 67.8013 141.164 67.376C140.71 66.9507 140.116 66.738 139.382 66.738C138.737 66.738 138.172 66.8993 137.688 67.222C137.219 67.53 136.933 67.992 136.83 68.608H134.498C134.572 67.816 134.836 67.1413 135.29 66.584C135.76 66.012 136.346 65.5793 137.05 65.286C137.769 64.978 138.554 64.824 139.404 64.824C140.93 64.824 142.11 65.2273 142.946 66.034C143.782 66.826 144.2 67.9113 144.2 69.29V76H142.176L141.978 74.13C141.67 74.7313 141.223 75.2373 140.636 75.648C140.05 76.0587 139.28 76.264 138.326 76.264ZM138.788 74.372C139.419 74.372 139.947 74.2253 140.372 73.932C140.812 73.624 141.15 73.2207 141.384 72.722C141.634 72.2233 141.788 71.6733 141.846 71.072H139.25C138.326 71.072 137.666 71.2333 137.27 71.556C136.889 71.8787 136.698 72.282 136.698 72.766C136.698 73.2647 136.882 73.6607 137.248 73.954C137.63 74.2327 138.143 74.372 138.788 74.372ZM146.919 76V65.088H149.009L149.207 67.156C149.589 66.4373 150.117 65.8727 150.791 65.462C151.481 65.0367 152.309 64.824 153.277 64.824V67.266H152.639C151.994 67.266 151.415 67.376 150.901 67.596C150.403 67.8013 149.999 68.1607 149.691 68.674C149.398 69.1727 149.251 69.8693 149.251 70.764V76H146.919ZM159.853 76C158.782 76 157.931 75.7433 157.301 75.23C156.67 74.702 156.355 73.7707 156.355 72.436V67.046H154.485V65.088H156.355L156.641 62.316H158.687V65.088H161.767V67.046H158.687V72.436C158.687 73.0373 158.811 73.4553 159.061 73.69C159.325 73.91 159.772 74.02 160.403 74.02H161.657V76H159.853ZM168.996 76.264C167.925 76.264 166.972 76.0293 166.136 75.56C165.315 75.076 164.669 74.4087 164.2 73.558C163.731 72.7073 163.496 71.7173 163.496 70.588C163.496 69.444 163.723 68.4393 164.178 67.574C164.647 66.7087 165.293 66.034 166.114 65.55C166.95 65.066 167.918 64.824 169.018 64.824C170.089 64.824 171.02 65.066 171.812 65.55C172.604 66.0193 173.22 66.65 173.66 67.442C174.1 68.234 174.32 69.1067 174.32 70.06C174.32 70.2067 174.313 70.368 174.298 70.544C174.298 70.7053 174.291 70.8887 174.276 71.094H165.784C165.857 72.15 166.202 72.9567 166.818 73.514C167.449 74.0567 168.175 74.328 168.996 74.328C169.656 74.328 170.206 74.1813 170.646 73.888C171.101 73.58 171.438 73.1693 171.658 72.656H173.99C173.697 73.6827 173.11 74.5407 172.23 75.23C171.365 75.9193 170.287 76.264 168.996 76.264ZM168.996 66.738C168.219 66.738 167.529 66.9727 166.928 67.442C166.327 67.8967 165.96 68.586 165.828 69.51H171.988C171.944 68.6593 171.643 67.9847 171.086 67.486C170.529 66.9873 169.832 66.738 168.996 66.738ZM181.712 76.264C180.656 76.264 179.724 76.0147 178.918 75.516C178.111 75.0173 177.48 74.3353 177.026 73.47C176.571 72.6047 176.344 71.622 176.344 70.522C176.344 69.422 176.571 68.4467 177.026 67.596C177.48 66.7307 178.111 66.056 178.918 65.572C179.739 65.0733 180.678 64.824 181.734 64.824C182.599 64.824 183.354 64.9927 184 65.33C184.66 65.6673 185.173 66.144 185.54 66.76V60.16H187.872V76H185.782L185.54 74.306C185.188 74.8193 184.704 75.274 184.088 75.67C183.472 76.066 182.68 76.264 181.712 76.264ZM182.13 74.24C183.127 74.24 183.941 73.8953 184.572 73.206C185.217 72.5167 185.54 71.6293 185.54 70.544C185.54 69.444 185.217 68.5567 184.572 67.882C183.941 67.1927 183.127 66.848 182.13 66.848C181.132 66.848 180.311 67.1927 179.666 67.882C179.02 68.5567 178.698 69.444 178.698 70.544C178.698 71.2627 178.844 71.9007 179.138 72.458C179.431 73.0153 179.834 73.4553 180.348 73.778C180.876 74.086 181.47 74.24 182.13 74.24Z" fill="white"/>
<path d="M207.21 62.7901L212.21 67.7901C212.301 67.8852 212.372 67.9973 212.42 68.1201C212.52 68.3635 212.52 68.6366 212.42 68.8801C212.372 69.0028 212.301 69.115 212.21 69.2101L207.21 74.2101C207.117 74.3033 207.006 74.3773 206.884 74.4277C206.762 74.4782 206.632 74.5042 206.5 74.5042C206.234 74.5042 205.978 74.3984 205.79 74.2101C205.602 74.0218 205.496 73.7664 205.496 73.5001C205.496 73.2338 205.602 72.9784 205.79 72.7901L209.09 69.5001H201.5C201.235 69.5001 200.98 69.3947 200.793 69.2072C200.605 69.0196 200.5 68.7653 200.5 68.5001C200.5 68.2348 200.605 67.9805 200.793 67.793C200.98 67.6054 201.235 67.5001 201.5 67.5001H209.09L205.79 64.2101C205.696 64.1171 205.622 64.0065 205.571 63.8846C205.52 63.7628 205.494 63.6321 205.494 63.5001C205.494 63.368 205.52 63.2373 205.571 63.1155C205.622 62.9936 205.696 62.883 205.79 62.7901C205.883 62.6963 205.994 62.6219 206.115 62.5712C206.237 62.5204 206.368 62.4943 206.5 62.4943C206.632 62.4943 206.763 62.5204 206.885 62.5712C207.006 62.6219 207.117 62.6963 207.21 62.7901Z" fill="white"/>
</g>
<defs>
<filter id="filter0_d_15_378" x="0" y="0" width="286" height="137" filterUnits="userSpaceOnUse" color-interpolation-filters="sRGB">
<feFlood flood-opacity="0" result="BackgroundImageFix"/>
<feColorMatrix in="SourceAlpha" type="matrix" values="0 0 0 0 0 0 0 0 0 0 0 0 0 0 0 0 0 0 127 0" result="hardAlpha"/>
<feOffset/>
<feGaussianBlur stdDeviation="19.5"/>
<feComposite in2="hardAlpha" operator="out"/>
<feColorMatrix type="matrix" values="0 0 0 0 0 0 0 0 0 0.658824 0 0 0 0 0.466667 0 0 0 0.5 0"/>
<feBlend mode="normal" in2="BackgroundImageFix" result="effect1_dropShadow_15_378"/>
<feBlend mode="normal" in="SourceGraphic" in2="effect1_dropShadow_15_378" result="shape"/>
</filter>
</defs>
</svg>
