<svg width="734" height="373" viewBox="0 0 734 373" fill="none" xmlns="http://www.w3.org/2000/svg">
<path d="M53.136 61V25.04H40.488V17.6H73.968V25.04H61.32V61H53.136ZM75.5509 61V30.248H83.2389V33.72H84.3549C85.2229 31.24 87.4549 30.124 90.3069 30.124H94.0269V37.068H90.1829C86.2149 37.068 83.3629 39.176 83.3629 43.516V61H75.5509ZM108.954 61.868C102.382 61.868 97.4224 58.334 97.4224 52.01C97.4224 45.686 102.382 42.4 109.326 42.4H117.758V40.664C117.758 37.812 116.022 35.704 112.054 35.704C108.148 35.704 106.412 37.688 105.854 40.478L98.6624 38.06C100.15 33.41 104.18 29.38 112.178 29.38C120.238 29.38 125.322 33.534 125.322 41.222V52.692C125.322 53.932 125.942 54.552 127.058 54.552H129.538V61H124.33C121.292 61 119.06 59.388 119.06 56.908V56.846H117.882C117.324 58.396 115.402 61.868 108.954 61.868ZM110.318 55.544C114.658 55.544 117.758 52.94 117.758 48.848V48.228H109.884C106.97 48.228 105.234 49.53 105.234 51.762C105.234 53.994 106.97 55.544 110.318 55.544ZM135.25 61V30.248H142.938V34.278H144.054C145.046 32.17 147.526 29.752 153.044 29.752C160.236 29.752 165.01 35.022 165.01 42.648V61H157.198V43.268C157.198 38.618 154.842 36.324 150.626 36.324C145.852 36.324 143.062 39.672 143.062 45.376V61H135.25ZM186.227 61.868C178.167 61.868 172.773 58.272 171.719 51.824L178.911 49.964C179.717 54.304 182.631 55.668 186.227 55.668C189.823 55.668 191.559 54.242 191.559 52.32C191.559 50.398 190.009 49.53 186.351 48.848L184.615 48.538C178.167 47.36 172.835 44.942 172.835 38.866C172.835 32.79 177.671 29.38 184.987 29.38C191.869 29.38 196.581 32.728 198.007 37.688L190.753 39.92C190.071 36.758 187.963 35.58 184.987 35.58C182.011 35.58 180.399 36.696 180.399 38.494C180.399 40.478 182.135 41.284 184.987 41.78L186.723 42.09C193.667 43.33 199.123 45.314 199.123 51.762C199.123 58.21 194.039 61.868 186.227 61.868ZM210.447 61V36.696H202.635V30.248H210.447V24.544C210.447 20.328 213.175 17.6 217.267 17.6H225.327V24.048H219.995C218.879 24.048 218.259 24.668 218.259 25.908V30.248H226.319V36.696H218.259V61H210.447ZM246.031 61.868C236.855 61.868 229.911 56.04 229.911 46.12V45.128C229.911 35.208 236.855 29.38 246.031 29.38C255.207 29.38 262.151 35.208 262.151 45.128V46.12C262.151 56.04 255.207 61.868 246.031 61.868ZM246.031 54.924C250.805 54.924 254.339 51.7 254.339 45.934V45.314C254.339 39.548 250.867 36.324 246.031 36.324C241.195 36.324 237.723 39.548 237.723 45.314V45.934C237.723 51.7 241.257 54.924 246.031 54.924ZM269.361 61V30.248H277.049V33.72H278.165C279.033 31.24 281.265 30.124 284.117 30.124H287.837V37.068H283.993C280.025 37.068 277.173 39.176 277.173 43.516V61H269.361ZM293.944 61V30.248H301.632V33.596H302.748C303.802 31.55 306.22 29.752 310.312 29.752C314.714 29.752 317.194 31.612 318.62 34.34H319.736C321.1 31.736 323.456 29.752 328.168 29.752C333.872 29.752 338.46 33.348 338.46 40.788V61H330.648V41.346C330.648 37.998 328.788 36.262 325.688 36.262C322.092 36.262 320.108 38.618 320.108 42.834V61H312.296V41.346C312.296 37.998 310.436 36.262 307.336 36.262C303.74 36.262 301.756 38.618 301.756 42.834V61H293.944ZM372.91 61V46.058L358.154 17.6H367.268L376.444 36.2H377.56L386.736 17.6H395.85L381.094 46.058V61H372.91ZM409.87 61.868C400.694 61.868 393.75 56.04 393.75 46.12V45.128C393.75 35.208 400.694 29.38 409.87 29.38C419.046 29.38 425.99 35.208 425.99 45.128V46.12C425.99 56.04 419.046 61.868 409.87 61.868ZM409.87 54.924C414.644 54.924 418.178 51.7 418.178 45.934V45.314C418.178 39.548 414.706 36.324 409.87 36.324C405.034 36.324 401.562 39.548 401.562 45.314V45.934C401.562 51.7 405.096 54.924 409.87 54.924ZM444.919 61.496C437.727 61.496 432.953 56.226 432.953 48.6V30.248H440.765V47.98C440.765 52.63 443.121 54.924 447.337 54.924C452.111 54.924 454.901 51.576 454.901 45.872V30.248H462.713V61H455.025V56.97H453.909C452.917 59.078 450.437 61.496 444.919 61.496ZM471.406 61V30.248H479.094V33.72H480.21C481.078 31.24 483.31 30.124 486.162 30.124H489.882V37.068H486.038C482.07 37.068 479.218 39.176 479.218 43.516V61H471.406ZM43.092 140V96.6H51.276V140H43.092ZM59.6877 140V109.248H67.3757V113.278H68.4917C69.4837 111.17 71.9637 108.752 77.4817 108.752C84.6737 108.752 89.4477 114.022 89.4477 121.648V140H81.6357V122.268C81.6357 117.618 79.2797 115.324 75.0637 115.324C70.2897 115.324 67.4997 118.672 67.4997 124.376V140H59.6877ZM108.825 140C104.733 140 102.005 137.272 102.005 133.056V115.696H94.3171V109.248H102.005V99.7H109.817V109.248H118.249V115.696H109.817V131.692C109.817 132.932 110.437 133.552 111.553 133.552H117.505V140H108.825ZM138.243 140.868C129.005 140.868 122.743 134.668 122.743 124.996V124.252C122.743 114.58 128.943 108.38 138.119 108.38C147.171 108.38 153.061 114.828 153.061 124.252V126.918H130.679C130.865 131.134 134.151 134.048 138.491 134.048C142.831 134.048 144.629 131.816 145.683 129.46L152.069 132.808C150.333 136.094 146.675 140.868 138.243 140.868ZM130.741 121.09H145.125C144.753 117.556 142.087 115.2 138.057 115.2C133.841 115.2 131.299 117.556 130.741 121.09ZM160.014 140V109.248H167.702V112.72H168.818C169.686 110.24 171.918 109.124 174.77 109.124H178.49V116.068H174.646C170.678 116.068 167.826 118.176 167.826 122.516V140H160.014ZM191.044 140L181.248 109.248H189.556L196.686 134.296H197.802L204.932 109.248H213.24L203.444 140H191.044ZM222.469 105.652C219.617 105.652 217.447 103.668 217.447 100.692C217.447 97.716 219.617 95.732 222.469 95.732C225.321 95.732 227.491 97.716 227.491 100.692C227.491 103.668 225.321 105.652 222.469 105.652ZM218.563 140V109.248H226.375V140H218.563ZM249.043 140.868C239.805 140.868 233.543 134.668 233.543 124.996V124.252C233.543 114.58 239.743 108.38 248.919 108.38C257.971 108.38 263.861 114.828 263.861 124.252V126.918H241.479C241.665 131.134 244.951 134.048 249.291 134.048C253.631 134.048 255.429 131.816 256.483 129.46L262.869 132.808C261.133 136.094 257.475 140.868 249.043 140.868ZM241.541 121.09H255.925C255.553 117.556 252.887 115.2 248.857 115.2C244.641 115.2 242.099 117.556 241.541 121.09ZM273.174 140L268.834 109.248H276.584L279.312 134.73H280.428L284.396 109.248H296.92L300.888 134.73H302.004L304.732 109.248H312.482L308.142 140H295.184L291.216 114.518H290.1L286.132 140H273.174ZM334.807 140V96.6H352.663C360.847 96.6 366.551 101.808 366.551 109.93V110.798C366.551 118.92 360.599 124.128 352.663 124.128H342.991V140H334.807ZM342.991 116.688H351.857C355.701 116.688 358.367 114.394 358.367 110.674V110.054C358.367 106.334 355.763 104.04 351.857 104.04H342.991V116.688ZM385.758 140.868C376.52 140.868 370.258 134.668 370.258 124.996V124.252C370.258 114.58 376.458 108.38 385.634 108.38C394.686 108.38 400.576 114.828 400.576 124.252V126.918H378.194C378.38 131.134 381.666 134.048 386.006 134.048C390.346 134.048 392.144 131.816 393.198 129.46L399.584 132.808C397.848 136.094 394.19 140.868 385.758 140.868ZM378.256 121.09H392.64C392.268 117.556 389.602 115.2 385.572 115.2C381.356 115.2 378.814 117.556 378.256 121.09ZM407.529 140V109.248H415.217V112.72H416.333C417.201 110.24 419.433 109.124 422.285 109.124H426.005V116.068H422.161C418.193 116.068 415.341 118.176 415.341 122.516V140H407.529ZM437.195 140V115.696H429.383V109.248H437.195V103.544C437.195 99.328 439.923 96.6 444.015 96.6H452.075V103.048H446.743C445.627 103.048 445.007 103.668 445.007 104.908V109.248H453.067V115.696H445.007V140H437.195ZM472.779 140.868C463.603 140.868 456.659 135.04 456.659 125.12V124.128C456.659 114.208 463.603 108.38 472.779 108.38C481.955 108.38 488.899 114.208 488.899 124.128V125.12C488.899 135.04 481.955 140.868 472.779 140.868ZM472.779 133.924C477.553 133.924 481.087 130.7 481.087 124.934V124.314C481.087 118.548 477.615 115.324 472.779 115.324C467.943 115.324 464.471 118.548 464.471 124.314V124.934C464.471 130.7 468.005 133.924 472.779 133.924ZM496.11 140V109.248H503.798V112.72H504.914C505.782 110.24 508.014 109.124 510.866 109.124H514.586V116.068H510.742C506.774 116.068 503.922 118.176 503.922 122.516V140H496.11ZM520.692 140V109.248H528.38V112.596H529.496C530.55 110.55 532.968 108.752 537.06 108.752C541.462 108.752 543.942 110.612 545.368 113.34H546.484C547.848 110.736 550.204 108.752 554.916 108.752C560.62 108.752 565.208 112.348 565.208 119.788V140H557.396V120.346C557.396 116.998 555.536 115.262 552.436 115.262C548.84 115.262 546.856 117.618 546.856 121.834V140H539.044V120.346C539.044 116.998 537.184 115.262 534.084 115.262C530.488 115.262 528.504 117.618 528.504 121.834V140H520.692ZM583.158 140.868C576.586 140.868 571.626 137.334 571.626 131.01C571.626 124.686 576.586 121.4 583.53 121.4H591.962V119.664C591.962 116.812 590.226 114.704 586.258 114.704C582.352 114.704 580.616 116.688 580.058 119.478L572.866 117.06C574.354 112.41 578.384 108.38 586.382 108.38C594.442 108.38 599.526 112.534 599.526 120.222V131.692C599.526 132.932 600.146 133.552 601.262 133.552H603.742V140H598.534C595.496 140 593.264 138.388 593.264 135.908V135.846H592.086C591.528 137.396 589.606 140.868 583.158 140.868ZM584.522 134.544C588.862 134.544 591.962 131.94 591.962 127.848V127.228H584.088C581.174 127.228 579.438 128.53 579.438 130.762C579.438 132.994 581.174 134.544 584.522 134.544ZM609.453 140V109.248H617.141V113.278H618.257C619.249 111.17 621.729 108.752 627.247 108.752C634.439 108.752 639.213 114.022 639.213 121.648V140H631.401V122.268C631.401 117.618 629.045 115.324 624.829 115.324C620.055 115.324 617.265 118.672 617.265 124.376V140H609.453ZM662.104 140.868C653.176 140.868 646.17 135.102 646.17 125.058V124.19C646.17 114.146 653.176 108.38 662.104 108.38C670.908 108.38 676.054 113.464 677.356 120.284L669.792 121.896C669.296 118.176 667.002 115.324 662.29 115.324C657.578 115.324 653.982 118.486 653.982 124.314V124.934C653.982 130.762 657.578 133.924 662.29 133.924C667.002 133.924 669.296 131.258 669.978 127.29L677.542 129.088C675.93 135.722 670.908 140.868 662.104 140.868ZM697.998 140.868C688.76 140.868 682.498 134.668 682.498 124.996V124.252C682.498 114.58 688.698 108.38 697.874 108.38C706.926 108.38 712.816 114.828 712.816 124.252V126.918H690.434C690.62 131.134 693.906 134.048 698.246 134.048C702.586 134.048 704.384 131.816 705.438 129.46L711.824 132.808C710.088 136.094 706.43 140.868 697.998 140.868ZM690.496 121.09H704.88C704.508 117.556 701.842 115.2 697.812 115.2C693.596 115.2 691.054 117.556 690.496 121.09ZM720.7 125.74V96.6H728.636V125.74H720.7ZM724.668 140.868C721.32 140.868 718.778 138.45 718.778 134.978C718.778 131.506 721.32 129.088 724.668 129.088C728.016 129.088 730.558 131.506 730.558 134.978C730.558 138.45 728.016 140.868 724.668 140.868Z" fill="black"/>
<path d="M46.848 192.288C45.696 192.288 44.648 192.064 43.704 191.616C42.776 191.152 42.032 190.44 41.472 189.48C40.912 188.52 40.632 187.296 40.632 185.808V175.2H42.648V185.832C42.648 187.464 43.04 188.648 43.824 189.384C44.608 190.12 45.632 190.488 46.896 190.488C48.16 190.488 49.176 190.12 49.944 189.384C50.712 188.648 51.096 187.464 51.096 185.832V175.2H53.112V185.808C53.112 187.296 52.832 188.52 52.272 189.48C51.712 190.44 50.96 191.152 50.016 191.616C49.072 192.064 48.016 192.288 46.848 192.288ZM56.406 197.28V180.096H58.23L58.422 182.064C58.806 181.488 59.35 180.968 60.054 180.504C60.774 180.04 61.686 179.808 62.79 179.808C63.974 179.808 65.006 180.08 65.886 180.624C66.766 181.168 67.446 181.912 67.926 182.856C68.422 183.8 68.67 184.872 68.67 186.072C68.67 187.272 68.422 188.344 67.926 189.288C67.446 190.216 66.758 190.952 65.862 191.496C64.982 192.024 63.95 192.288 62.766 192.288C61.79 192.288 60.918 192.088 60.15 191.688C59.398 191.288 58.822 190.728 58.422 190.008V197.28H56.406ZM62.55 190.536C63.35 190.536 64.054 190.352 64.662 189.984C65.27 189.6 65.75 189.072 66.102 188.4C66.454 187.728 66.63 186.944 66.63 186.048C66.63 185.152 66.454 184.368 66.102 183.696C65.75 183.024 65.27 182.504 64.662 182.136C64.054 181.752 63.35 181.56 62.55 181.56C61.75 181.56 61.046 181.752 60.438 182.136C59.83 182.504 59.35 183.024 58.998 183.696C58.646 184.368 58.47 185.152 58.47 186.048C58.47 186.944 58.646 187.728 58.998 188.4C59.35 189.072 59.83 189.6 60.438 189.984C61.046 190.352 61.75 190.536 62.55 190.536ZM75.6647 188.256C74.9927 188.256 74.3767 188.168 73.8167 187.992L72.6167 189.12C72.7927 189.248 73.0087 189.36 73.2647 189.456C73.5367 189.536 73.9207 189.616 74.4167 189.696C74.9127 189.76 75.6087 189.832 76.5047 189.912C78.1047 190.024 79.2487 190.392 79.9367 191.016C80.6247 191.64 80.9687 192.456 80.9687 193.464C80.9687 194.152 80.7767 194.808 80.3927 195.432C80.0247 196.056 79.4487 196.568 78.6647 196.968C77.8967 197.368 76.9047 197.568 75.6887 197.568C74.6167 197.568 73.6647 197.424 72.8327 197.136C72.0007 196.864 71.3527 196.44 70.8887 195.864C70.4247 195.304 70.1927 194.592 70.1927 193.728C70.1927 193.28 70.3127 192.792 70.5527 192.264C70.7927 191.752 71.2407 191.264 71.8967 190.8C71.5447 190.656 71.2407 190.504 70.9847 190.344C70.7447 190.168 70.5207 189.976 70.3127 189.768V189.216L72.3527 187.2C71.4087 186.4 70.9367 185.344 70.9367 184.032C70.9367 183.248 71.1207 182.536 71.4887 181.896C71.8567 181.256 72.3927 180.752 73.0967 180.384C73.8007 180 74.6567 179.808 75.6647 179.808C76.3527 179.808 76.9767 179.904 77.5367 180.096H81.9287V181.608L79.6967 181.704C80.1607 182.376 80.3927 183.152 80.3927 184.032C80.3927 184.816 80.2007 185.528 79.8167 186.168C79.4487 186.808 78.9127 187.32 78.2087 187.704C77.5207 188.072 76.6727 188.256 75.6647 188.256ZM75.6647 186.6C76.5127 186.6 77.1847 186.384 77.6807 185.952C78.1927 185.504 78.4487 184.864 78.4487 184.032C78.4487 183.216 78.1927 182.592 77.6807 182.16C77.1847 181.712 76.5127 181.488 75.6647 181.488C74.8007 181.488 74.1127 181.712 73.6007 182.16C73.1047 182.592 72.8567 183.216 72.8567 184.032C72.8567 184.864 73.1047 185.504 73.6007 185.952C74.1127 186.384 74.8007 186.6 75.6647 186.6ZM72.1607 193.536C72.1607 194.336 72.4967 194.928 73.1687 195.312C73.8407 195.712 74.6807 195.912 75.6887 195.912C76.6807 195.912 77.4727 195.696 78.0647 195.264C78.6727 194.832 78.9767 194.256 78.9767 193.536C78.9767 193.024 78.7687 192.576 78.3527 192.192C77.9367 191.824 77.1687 191.608 76.0487 191.544C75.1687 191.48 74.4087 191.4 73.7687 191.304C73.1127 191.656 72.6807 192.032 72.4727 192.432C72.2647 192.848 72.1607 193.216 72.1607 193.536ZM84.2029 192V180.096H86.0269L86.1949 182.376C86.5629 181.592 87.1229 180.968 87.8749 180.504C88.6269 180.04 89.5549 179.808 90.6589 179.808V181.92H90.1069C89.4029 181.92 88.7549 182.048 88.1629 182.304C87.5709 182.544 87.0989 182.96 86.7469 183.552C86.3949 184.144 86.2189 184.96 86.2189 186V192H84.2029ZM96.8816 192.288C95.8896 192.288 95.0656 192.12 94.4096 191.784C93.7536 191.448 93.2656 191 92.9456 190.44C92.6256 189.88 92.4656 189.272 92.4656 188.616C92.4656 187.4 92.9296 186.464 93.8576 185.808C94.7856 185.152 96.0496 184.824 97.6496 184.824H100.866V184.68C100.866 183.64 100.594 182.856 100.05 182.328C99.5056 181.784 98.7776 181.512 97.8656 181.512C97.0816 181.512 96.4016 181.712 95.8256 182.112C95.2656 182.496 94.9136 183.064 94.7696 183.816H92.7056C92.7856 182.952 93.0736 182.224 93.5696 181.632C94.0816 181.04 94.7136 180.592 95.4656 180.288C96.2176 179.968 97.0176 179.808 97.8656 179.808C99.5296 179.808 100.778 180.256 101.61 181.152C102.458 182.032 102.882 183.208 102.882 184.68V192H101.082L100.962 189.864C100.626 190.536 100.13 191.112 99.4736 191.592C98.8336 192.056 97.9696 192.288 96.8816 192.288ZM97.1936 190.584C97.9616 190.584 98.6176 190.384 99.1616 189.984C99.7216 189.584 100.146 189.064 100.434 188.424C100.722 187.784 100.866 187.112 100.866 186.408V186.384H97.8176C96.6336 186.384 95.7936 186.592 95.2976 187.008C94.8176 187.408 94.5776 187.912 94.5776 188.52C94.5776 189.144 94.8016 189.648 95.2496 190.032C95.7136 190.4 96.3616 190.584 97.1936 190.584ZM111.306 192.288C110.122 192.288 109.082 192.016 108.186 191.472C107.306 190.928 106.618 190.184 106.122 189.24C105.642 188.296 105.402 187.224 105.402 186.024C105.402 184.824 105.65 183.76 106.146 182.832C106.642 181.888 107.33 181.152 108.21 180.624C109.09 180.08 110.13 179.808 111.33 179.808C112.306 179.808 113.17 180.008 113.922 180.408C114.674 180.808 115.258 181.368 115.674 182.088V174.72H117.69V192H115.866L115.674 190.032C115.29 190.608 114.738 191.128 114.018 191.592C113.298 192.056 112.394 192.288 111.306 192.288ZM111.522 190.536C112.322 190.536 113.026 190.352 113.634 189.984C114.258 189.6 114.738 189.072 115.074 188.4C115.426 187.728 115.602 186.944 115.602 186.048C115.602 185.152 115.426 184.368 115.074 183.696C114.738 183.024 114.258 182.504 113.634 182.136C113.026 181.752 112.322 181.56 111.522 181.56C110.738 181.56 110.034 181.752 109.41 182.136C108.802 182.504 108.322 183.024 107.97 183.696C107.634 184.368 107.466 185.152 107.466 186.048C107.466 186.944 107.634 187.728 107.97 188.4C108.322 189.072 108.802 189.6 109.41 189.984C110.034 190.352 110.738 190.536 111.522 190.536ZM126.328 192.288C125.192 192.288 124.184 192.032 123.304 191.52C122.424 190.992 121.728 190.264 121.216 189.336C120.72 188.408 120.472 187.312 120.472 186.048C120.472 184.8 120.72 183.712 121.216 182.784C121.712 181.84 122.4 181.112 123.28 180.6C124.176 180.072 125.208 179.808 126.376 179.808C127.528 179.808 128.52 180.072 129.352 180.6C130.2 181.112 130.848 181.792 131.296 182.64C131.744 183.488 131.968 184.4 131.968 185.376C131.968 185.552 131.96 185.728 131.944 185.904C131.944 186.08 131.944 186.28 131.944 186.504H122.464C122.512 187.416 122.72 188.176 123.088 188.784C123.472 189.376 123.944 189.824 124.504 190.128C125.08 190.432 125.688 190.584 126.328 190.584C127.16 190.584 127.856 190.392 128.416 190.008C128.976 189.624 129.384 189.104 129.64 188.448H131.632C131.312 189.552 130.696 190.472 129.784 191.208C128.888 191.928 127.736 192.288 126.328 192.288ZM126.328 181.512C125.368 181.512 124.512 181.808 123.76 182.4C123.024 182.976 122.6 183.824 122.488 184.944H129.976C129.928 183.872 129.56 183.032 128.872 182.424C128.184 181.816 127.336 181.512 126.328 181.512ZM142.288 197.28L145.24 190.848H144.544L139.816 180.096H142L145.936 189.36L150.112 180.096H152.2L144.4 197.28H142.288ZM158.627 192.288C157.507 192.288 156.499 192.032 155.603 191.52C154.707 191.008 153.995 190.288 153.467 189.36C152.955 188.416 152.699 187.312 152.699 186.048C152.699 184.784 152.963 183.688 153.491 182.76C154.019 181.816 154.731 181.088 155.627 180.576C156.539 180.064 157.555 179.808 158.675 179.808C159.795 179.808 160.803 180.064 161.699 180.576C162.595 181.088 163.299 181.816 163.811 182.76C164.339 183.688 164.603 184.784 164.603 186.048C164.603 187.312 164.339 188.416 163.811 189.36C163.283 190.288 162.563 191.008 161.651 191.52C160.755 192.032 159.747 192.288 158.627 192.288ZM158.627 190.56C159.315 190.56 159.955 190.392 160.547 190.056C161.139 189.72 161.619 189.216 161.987 188.544C162.355 187.872 162.539 187.04 162.539 186.048C162.539 185.056 162.355 184.224 161.987 183.552C161.635 182.88 161.163 182.376 160.571 182.04C159.979 181.704 159.347 181.536 158.675 181.536C157.987 181.536 157.347 181.704 156.755 182.04C156.163 182.376 155.683 182.88 155.315 183.552C154.947 184.224 154.763 185.056 154.763 186.048C154.763 187.04 154.947 187.872 155.315 188.544C155.683 189.216 156.155 189.72 156.731 190.056C157.323 190.392 157.955 190.56 158.627 190.56ZM171.75 192.288C170.342 192.288 169.222 191.864 168.39 191.016C167.558 190.152 167.142 188.832 167.142 187.056V180.096H169.158V186.84C169.158 189.32 170.174 190.56 172.206 190.56C173.246 190.56 174.102 190.192 174.774 189.456C175.462 188.704 175.806 187.64 175.806 186.264V180.096H177.822V192H175.998L175.854 189.864C175.486 190.616 174.934 191.208 174.198 191.64C173.478 192.072 172.662 192.288 171.75 192.288ZM181.14 192V180.096H182.964L183.132 182.376C183.5 181.592 184.06 180.968 184.812 180.504C185.564 180.04 186.492 179.808 187.596 179.808V181.92H187.044C186.34 181.92 185.692 182.048 185.1 182.304C184.508 182.544 184.036 182.96 183.684 183.552C183.332 184.144 183.156 184.96 183.156 186V192H181.14ZM197.435 177.456C197.035 177.456 196.699 177.328 196.427 177.072C196.171 176.8 196.043 176.464 196.043 176.064C196.043 175.68 196.171 175.36 196.427 175.104C196.699 174.848 197.035 174.72 197.435 174.72C197.819 174.72 198.147 174.848 198.419 175.104C198.691 175.36 198.827 175.68 198.827 176.064C198.827 176.464 198.691 176.8 198.419 177.072C198.147 177.328 197.819 177.456 197.435 177.456ZM196.427 192V180.096H198.443V192H196.427ZM201.953 192V180.096H203.777L203.897 182.232C204.281 181.48 204.833 180.888 205.553 180.456C206.273 180.024 207.089 179.808 208.001 179.808C209.409 179.808 210.529 180.24 211.361 181.104C212.209 181.952 212.633 183.264 212.633 185.04V192H210.617V185.256C210.617 182.776 209.593 181.536 207.545 181.536C206.521 181.536 205.665 181.912 204.977 182.664C204.305 183.4 203.969 184.456 203.969 185.832V192H201.953ZM220.391 192C219.303 192 218.447 191.736 217.823 191.208C217.199 190.68 216.887 189.728 216.887 188.352V181.8H214.823V180.096H216.887L217.151 177.24H218.903V180.096H222.407V181.8H218.903V188.352C218.903 189.104 219.055 189.616 219.359 189.888C219.663 190.144 220.199 190.272 220.967 190.272H222.215V192H220.391ZM229.992 192.288C228.856 192.288 227.848 192.032 226.968 191.52C226.088 190.992 225.392 190.264 224.88 189.336C224.384 188.408 224.136 187.312 224.136 186.048C224.136 184.8 224.384 183.712 224.88 182.784C225.376 181.84 226.064 181.112 226.944 180.6C227.84 180.072 228.872 179.808 230.04 179.808C231.192 179.808 232.184 180.072 233.016 180.6C233.864 181.112 234.512 181.792 234.96 182.64C235.408 183.488 235.632 184.4 235.632 185.376C235.632 185.552 235.624 185.728 235.608 185.904C235.608 186.08 235.608 186.28 235.608 186.504H226.128C226.176 187.416 226.384 188.176 226.752 188.784C227.136 189.376 227.608 189.824 228.168 190.128C228.744 190.432 229.352 190.584 229.992 190.584C230.824 190.584 231.52 190.392 232.08 190.008C232.64 189.624 233.048 189.104 233.304 188.448H235.296C234.976 189.552 234.36 190.472 233.448 191.208C232.552 191.928 231.4 192.288 229.992 192.288ZM229.992 181.512C229.032 181.512 228.176 181.808 227.424 182.4C226.688 182.976 226.264 183.824 226.152 184.944H233.64C233.592 183.872 233.224 183.032 232.536 182.424C231.848 181.816 231 181.512 229.992 181.512ZM238.304 192V180.096H240.128L240.296 182.376C240.664 181.592 241.224 180.968 241.976 180.504C242.728 180.04 243.656 179.808 244.76 179.808V181.92H244.208C243.504 181.92 242.856 182.048 242.264 182.304C241.672 182.544 241.2 182.96 240.848 183.552C240.496 184.144 240.32 184.96 240.32 186V192H238.304ZM250.455 192L245.943 180.096H248.055L251.631 190.056L255.231 180.096H257.295L252.783 192H250.455ZM260.763 177.456C260.363 177.456 260.027 177.328 259.755 177.072C259.499 176.8 259.371 176.464 259.371 176.064C259.371 175.68 259.499 175.36 259.755 175.104C260.027 174.848 260.363 174.72 260.763 174.72C261.147 174.72 261.475 174.848 261.747 175.104C262.019 175.36 262.155 175.68 262.155 176.064C262.155 176.464 262.019 176.8 261.747 177.072C261.475 177.328 261.147 177.456 260.763 177.456ZM259.755 192V180.096H261.771V192H259.755ZM270.633 192.288C269.497 192.288 268.489 192.032 267.609 191.52C266.729 190.992 266.033 190.264 265.521 189.336C265.025 188.408 264.777 187.312 264.777 186.048C264.777 184.8 265.025 183.712 265.521 182.784C266.017 181.84 266.705 181.112 267.585 180.6C268.481 180.072 269.513 179.808 270.681 179.808C271.833 179.808 272.825 180.072 273.657 180.6C274.505 181.112 275.153 181.792 275.601 182.64C276.049 183.488 276.273 184.4 276.273 185.376C276.273 185.552 276.265 185.728 276.249 185.904C276.249 186.08 276.249 186.28 276.249 186.504H266.769C266.817 187.416 267.025 188.176 267.393 188.784C267.777 189.376 268.249 189.824 268.809 190.128C269.385 190.432 269.993 190.584 270.633 190.584C271.465 190.584 272.161 190.392 272.721 190.008C273.281 189.624 273.689 189.104 273.945 188.448H275.937C275.617 189.552 275.001 190.472 274.089 191.208C273.193 191.928 272.041 192.288 270.633 192.288ZM270.633 181.512C269.673 181.512 268.817 181.808 268.065 182.4C267.329 182.976 266.905 183.824 266.793 184.944H274.281C274.233 183.872 273.865 183.032 273.177 182.424C272.489 181.816 271.641 181.512 270.633 181.512ZM280.876 192L277.396 180.096H279.412L281.932 189.432L284.716 180.096H286.996L289.804 189.432L292.3 180.096H294.34L290.86 192H288.796L285.868 182.184L282.94 192H280.876ZM307.482 192.288C306.058 192.288 304.874 191.928 303.93 191.208C302.986 190.488 302.434 189.512 302.274 188.28H304.338C304.466 188.904 304.794 189.448 305.322 189.912C305.866 190.36 306.594 190.584 307.506 190.584C308.354 190.584 308.978 190.408 309.378 190.056C309.778 189.688 309.978 189.256 309.978 188.76C309.978 188.04 309.714 187.56 309.186 187.32C308.674 187.08 307.946 186.864 307.002 186.672C306.362 186.544 305.722 186.36 305.082 186.12C304.442 185.88 303.906 185.544 303.474 185.112C303.042 184.664 302.826 184.08 302.826 183.36C302.826 182.32 303.21 181.472 303.978 180.816C304.762 180.144 305.818 179.808 307.146 179.808C308.41 179.808 309.442 180.128 310.242 180.768C311.058 181.392 311.53 182.288 311.658 183.456H309.666C309.586 182.848 309.322 182.376 308.874 182.04C308.442 181.688 307.858 181.512 307.122 181.512C306.402 181.512 305.842 181.664 305.442 181.968C305.058 182.272 304.866 182.672 304.866 183.168C304.866 183.648 305.114 184.024 305.61 184.296C306.122 184.568 306.81 184.8 307.674 184.992C308.41 185.152 309.106 185.352 309.762 185.592C310.434 185.816 310.978 186.16 311.394 186.624C311.826 187.072 312.042 187.728 312.042 188.592C312.058 189.664 311.65 190.552 310.818 191.256C310.002 191.944 308.89 192.288 307.482 192.288ZM314.922 192V174.72H316.938V185.112L321.81 180.096H324.282L319.002 185.472L324.954 192H322.386L316.938 185.832V192H314.922ZM328.239 177.456C327.839 177.456 327.503 177.328 327.231 177.072C326.975 176.8 326.847 176.464 326.847 176.064C326.847 175.68 326.975 175.36 327.231 175.104C327.503 174.848 327.839 174.72 328.239 174.72C328.623 174.72 328.951 174.848 329.223 175.104C329.495 175.36 329.631 175.68 329.631 176.064C329.631 176.464 329.495 176.8 329.223 177.072C328.951 177.328 328.623 177.456 328.239 177.456ZM327.231 192V180.096H329.247V192H327.231ZM332.758 192V174.72H334.774V192H332.758ZM338.078 192V174.72H340.094V192H338.078ZM347.958 192.288C346.534 192.288 345.35 191.928 344.406 191.208C343.462 190.488 342.91 189.512 342.75 188.28H344.814C344.942 188.904 345.27 189.448 345.798 189.912C346.342 190.36 347.07 190.584 347.982 190.584C348.83 190.584 349.454 190.408 349.854 190.056C350.254 189.688 350.454 189.256 350.454 188.76C350.454 188.04 350.19 187.56 349.662 187.32C349.15 187.08 348.422 186.864 347.478 186.672C346.838 186.544 346.198 186.36 345.558 186.12C344.918 185.88 344.382 185.544 343.95 185.112C343.518 184.664 343.302 184.08 343.302 183.36C343.302 182.32 343.686 181.472 344.454 180.816C345.238 180.144 346.294 179.808 347.622 179.808C348.886 179.808 349.918 180.128 350.718 180.768C351.534 181.392 352.006 182.288 352.134 183.456H350.142C350.062 182.848 349.798 182.376 349.35 182.04C348.918 181.688 348.334 181.512 347.598 181.512C346.878 181.512 346.318 181.664 345.918 181.968C345.534 182.272 345.342 182.672 345.342 183.168C345.342 183.648 345.59 184.024 346.086 184.296C346.598 184.568 347.286 184.8 348.15 184.992C348.886 185.152 349.582 185.352 350.238 185.592C350.91 185.816 351.454 186.16 351.87 186.624C352.302 187.072 352.518 187.728 352.518 188.592C352.534 189.664 352.126 190.552 351.294 191.256C350.478 191.944 349.366 192.288 347.958 192.288ZM364.15 192L360.67 180.096H362.686L365.206 189.432L367.99 180.096H370.27L373.078 189.432L375.574 180.096H377.614L374.134 192H372.07L369.142 182.184L366.214 192H364.15ZM381.068 177.456C380.668 177.456 380.332 177.328 380.06 177.072C379.804 176.8 379.676 176.464 379.676 176.064C379.676 175.68 379.804 175.36 380.06 175.104C380.332 174.848 380.668 174.72 381.068 174.72C381.452 174.72 381.78 174.848 382.052 175.104C382.324 175.36 382.46 175.68 382.46 176.064C382.46 176.464 382.324 176.8 382.052 177.072C381.78 177.328 381.452 177.456 381.068 177.456ZM380.06 192V180.096H382.076V192H380.06ZM390.29 192C389.202 192 388.346 191.736 387.722 191.208C387.098 190.68 386.786 189.728 386.786 188.352V181.8H384.722V180.096H386.786L387.05 177.24H388.802V180.096H392.306V181.8H388.802V188.352C388.802 189.104 388.954 189.616 389.258 189.888C389.562 190.144 390.098 190.272 390.866 190.272H392.114V192H390.29ZM394.867 192V174.72H396.883V182.136C397.283 181.4 397.851 180.832 398.587 180.432C399.323 180.016 400.123 179.808 400.987 179.808C402.363 179.808 403.467 180.24 404.299 181.104C405.131 181.952 405.547 183.264 405.547 185.04V192H403.555V185.256C403.555 182.776 402.555 181.536 400.555 181.536C399.515 181.536 398.643 181.912 397.939 182.664C397.235 183.4 396.883 184.456 396.883 185.832V192H394.867ZM41.952 228.28L44.904 221.848H44.208L39.48 211.096H41.664L45.6 220.36L49.776 211.096H51.864L44.064 228.28H41.952ZM58.2909 223.288C57.1709 223.288 56.1629 223.032 55.2669 222.52C54.3709 222.008 53.6589 221.288 53.1309 220.36C52.6189 219.416 52.3629 218.312 52.3629 217.048C52.3629 215.784 52.6269 214.688 53.1549 213.76C53.6829 212.816 54.3949 212.088 55.2909 211.576C56.2029 211.064 57.2189 210.808 58.3389 210.808C59.4589 210.808 60.4669 211.064 61.3629 211.576C62.2589 212.088 62.9629 212.816 63.4749 213.76C64.0029 214.688 64.2669 215.784 64.2669 217.048C64.2669 218.312 64.0029 219.416 63.4749 220.36C62.9469 221.288 62.2269 222.008 61.3149 222.52C60.4189 223.032 59.4109 223.288 58.2909 223.288ZM58.2909 221.56C58.9789 221.56 59.6189 221.392 60.2109 221.056C60.8029 220.72 61.2829 220.216 61.6509 219.544C62.0189 218.872 62.2029 218.04 62.2029 217.048C62.2029 216.056 62.0189 215.224 61.6509 214.552C61.2989 213.88 60.8269 213.376 60.2349 213.04C59.6429 212.704 59.0109 212.536 58.3389 212.536C57.6509 212.536 57.0109 212.704 56.4189 213.04C55.8269 213.376 55.3469 213.88 54.9789 214.552C54.6109 215.224 54.4269 216.056 54.4269 217.048C54.4269 218.04 54.6109 218.872 54.9789 219.544C55.3469 220.216 55.8189 220.72 56.3949 221.056C56.9869 221.392 57.6189 221.56 58.2909 221.56ZM71.4141 223.288C70.0061 223.288 68.8861 222.864 68.0541 222.016C67.2221 221.152 66.8061 219.832 66.8061 218.056V211.096H68.8221V217.84C68.8221 220.32 69.8381 221.56 71.8701 221.56C72.9101 221.56 73.7661 221.192 74.4381 220.456C75.1261 219.704 75.4701 218.64 75.4701 217.264V211.096H77.4861V223H75.6621L75.5181 220.864C75.1501 221.616 74.5981 222.208 73.8621 222.64C73.1421 223.072 72.3261 223.288 71.4141 223.288ZM80.8044 223V211.096H82.6284L82.7964 213.376C83.1644 212.592 83.7244 211.968 84.4764 211.504C85.2284 211.04 86.1564 210.808 87.2604 210.808V212.92H86.7084C86.0044 212.92 85.3564 213.048 84.7644 213.304C84.1724 213.544 83.7004 213.96 83.3484 214.552C82.9964 215.144 82.8204 215.96 82.8204 217V223H80.8044ZM94.9388 223L101.131 206.2H103.267L109.435 223H107.299L105.763 218.68H98.6108L97.0508 223H94.9388ZM99.2108 217.048H105.163L102.187 208.744L99.2108 217.048ZM111.932 223V206.2H113.948V223H111.932ZM117.15 216.88V215.176H126.654V216.88H117.15ZM135.095 223.288C133.911 223.288 132.871 223.016 131.975 222.472C131.095 221.928 130.407 221.184 129.911 220.24C129.431 219.296 129.191 218.224 129.191 217.024C129.191 215.824 129.439 214.76 129.935 213.832C130.431 212.888 131.119 212.152 131.999 211.624C132.879 211.08 133.919 210.808 135.119 210.808C136.095 210.808 136.959 211.008 137.711 211.408C138.463 211.808 139.047 212.368 139.463 213.088V205.72H141.479V223H139.655L139.463 221.032C139.079 221.608 138.527 222.128 137.807 222.592C137.087 223.056 136.183 223.288 135.095 223.288ZM135.311 221.536C136.111 221.536 136.815 221.352 137.423 220.984C138.047 220.6 138.527 220.072 138.863 219.4C139.215 218.728 139.391 217.944 139.391 217.048C139.391 216.152 139.215 215.368 138.863 214.696C138.527 214.024 138.047 213.504 137.423 213.136C136.815 212.752 136.111 212.56 135.311 212.56C134.527 212.56 133.823 212.752 133.199 213.136C132.591 213.504 132.111 214.024 131.759 214.696C131.423 215.368 131.255 216.152 131.255 217.048C131.255 217.944 131.423 218.728 131.759 219.4C132.111 220.072 132.591 220.6 133.199 220.984C133.823 221.352 134.527 221.536 135.311 221.536ZM144.765 223V211.096H146.589L146.757 213.376C147.125 212.592 147.685 211.968 148.437 211.504C149.189 211.04 150.117 210.808 151.221 210.808V212.92H150.669C149.965 212.92 149.317 213.048 148.725 213.304C148.133 213.544 147.661 213.96 147.309 214.552C146.957 215.144 146.781 215.96 146.781 217V223H144.765ZM154.708 208.456C154.308 208.456 153.972 208.328 153.7 208.072C153.444 207.8 153.316 207.464 153.316 207.064C153.316 206.68 153.444 206.36 153.7 206.104C153.972 205.848 154.308 205.72 154.708 205.72C155.092 205.72 155.42 205.848 155.692 206.104C155.964 206.36 156.1 206.68 156.1 207.064C156.1 207.464 155.964 207.8 155.692 208.072C155.42 208.328 155.092 208.456 154.708 208.456ZM153.7 223V211.096H155.716V223H153.7ZM162.658 223L158.146 211.096H160.258L163.834 221.056L167.434 211.096H169.498L164.986 223H162.658ZM176.485 223.288C175.349 223.288 174.341 223.032 173.461 222.52C172.581 221.992 171.885 221.264 171.373 220.336C170.877 219.408 170.629 218.312 170.629 217.048C170.629 215.8 170.877 214.712 171.373 213.784C171.869 212.84 172.557 212.112 173.437 211.6C174.333 211.072 175.365 210.808 176.533 210.808C177.685 210.808 178.677 211.072 179.509 211.6C180.357 212.112 181.005 212.792 181.453 213.64C181.901 214.488 182.125 215.4 182.125 216.376C182.125 216.552 182.117 216.728 182.101 216.904C182.101 217.08 182.101 217.28 182.101 217.504H172.621C172.669 218.416 172.877 219.176 173.245 219.784C173.629 220.376 174.101 220.824 174.661 221.128C175.237 221.432 175.845 221.584 176.485 221.584C177.317 221.584 178.013 221.392 178.573 221.008C179.133 220.624 179.541 220.104 179.797 219.448H181.789C181.469 220.552 180.853 221.472 179.941 222.208C179.045 222.928 177.893 223.288 176.485 223.288ZM176.485 212.512C175.525 212.512 174.669 212.808 173.917 213.4C173.181 213.976 172.757 214.824 172.645 215.944H180.133C180.085 214.872 179.717 214.032 179.029 213.424C178.341 212.816 177.493 212.512 176.485 212.512ZM184.797 223V211.096H186.621L186.741 213.232C187.125 212.48 187.677 211.888 188.397 211.456C189.117 211.024 189.933 210.808 190.845 210.808C192.253 210.808 193.373 211.24 194.205 212.104C195.053 212.952 195.477 214.264 195.477 216.04V223H193.461V216.256C193.461 213.776 192.437 212.536 190.389 212.536C189.365 212.536 188.509 212.912 187.821 213.664C187.149 214.4 186.813 215.456 186.813 216.832V223H184.797ZM209.587 219.256C208.915 219.256 208.299 219.168 207.739 218.992L206.539 220.12C206.715 220.248 206.931 220.36 207.187 220.456C207.459 220.536 207.843 220.616 208.339 220.696C208.835 220.76 209.531 220.832 210.427 220.912C212.027 221.024 213.171 221.392 213.859 222.016C214.547 222.64 214.891 223.456 214.891 224.464C214.891 225.152 214.699 225.808 214.315 226.432C213.947 227.056 213.371 227.568 212.587 227.968C211.819 228.368 210.827 228.568 209.611 228.568C208.539 228.568 207.587 228.424 206.755 228.136C205.923 227.864 205.275 227.44 204.811 226.864C204.347 226.304 204.115 225.592 204.115 224.728C204.115 224.28 204.235 223.792 204.475 223.264C204.715 222.752 205.163 222.264 205.819 221.8C205.467 221.656 205.163 221.504 204.907 221.344C204.667 221.168 204.443 220.976 204.235 220.768V220.216L206.275 218.2C205.331 217.4 204.859 216.344 204.859 215.032C204.859 214.248 205.043 213.536 205.411 212.896C205.779 212.256 206.315 211.752 207.019 211.384C207.723 211 208.579 210.808 209.587 210.808C210.275 210.808 210.899 210.904 211.459 211.096H215.851V212.608L213.619 212.704C214.083 213.376 214.315 214.152 214.315 215.032C214.315 215.816 214.123 216.528 213.739 217.168C213.371 217.808 212.835 218.32 212.131 218.704C211.443 219.072 210.595 219.256 209.587 219.256ZM209.587 217.6C210.435 217.6 211.107 217.384 211.603 216.952C212.115 216.504 212.371 215.864 212.371 215.032C212.371 214.216 212.115 213.592 211.603 213.16C211.107 212.712 210.435 212.488 209.587 212.488C208.723 212.488 208.035 212.712 207.523 213.16C207.027 213.592 206.779 214.216 206.779 215.032C206.779 215.864 207.027 216.504 207.523 216.952C208.035 217.384 208.723 217.6 209.587 217.6ZM206.083 224.536C206.083 225.336 206.419 225.928 207.091 226.312C207.763 226.712 208.603 226.912 209.611 226.912C210.603 226.912 211.395 226.696 211.987 226.264C212.595 225.832 212.899 225.256 212.899 224.536C212.899 224.024 212.691 223.576 212.275 223.192C211.859 222.824 211.091 222.608 209.971 222.544C209.091 222.48 208.331 222.4 207.691 222.304C207.035 222.656 206.603 223.032 206.395 223.432C206.187 223.848 206.083 224.216 206.083 224.536ZM222.469 223.288C221.061 223.288 219.941 222.864 219.109 222.016C218.277 221.152 217.861 219.832 217.861 218.056V211.096H219.877V217.84C219.877 220.32 220.893 221.56 222.925 221.56C223.965 221.56 224.821 221.192 225.493 220.456C226.181 219.704 226.525 218.64 226.525 217.264V211.096H228.541V223H226.717L226.573 220.864C226.205 221.616 225.653 222.208 224.917 222.64C224.197 223.072 223.381 223.288 222.469 223.288ZM233.083 208.456C232.683 208.456 232.347 208.328 232.075 208.072C231.819 207.8 231.691 207.464 231.691 207.064C231.691 206.68 231.819 206.36 232.075 206.104C232.347 205.848 232.683 205.72 233.083 205.72C233.467 205.72 233.795 205.848 234.067 206.104C234.339 206.36 234.475 206.68 234.475 207.064C234.475 207.464 234.339 207.8 234.067 208.072C233.795 208.328 233.467 208.456 233.083 208.456ZM232.075 223V211.096H234.091V223H232.075ZM243.001 223.288C241.817 223.288 240.777 223.016 239.881 222.472C239.001 221.928 238.313 221.184 237.817 220.24C237.337 219.296 237.097 218.224 237.097 217.024C237.097 215.824 237.345 214.76 237.841 213.832C238.337 212.888 239.025 212.152 239.905 211.624C240.785 211.08 241.825 210.808 243.025 210.808C244.001 210.808 244.865 211.008 245.617 211.408C246.369 211.808 246.953 212.368 247.369 213.088V205.72H249.385V223H247.561L247.369 221.032C246.985 221.608 246.433 222.128 245.713 222.592C244.993 223.056 244.089 223.288 243.001 223.288ZM243.217 221.536C244.017 221.536 244.721 221.352 245.329 220.984C245.953 220.6 246.433 220.072 246.769 219.4C247.121 218.728 247.297 217.944 247.297 217.048C247.297 216.152 247.121 215.368 246.769 214.696C246.433 214.024 245.953 213.504 245.329 213.136C244.721 212.752 244.017 212.56 243.217 212.56C242.433 212.56 241.729 212.752 241.105 213.136C240.497 213.504 240.017 214.024 239.665 214.696C239.329 215.368 239.161 216.152 239.161 217.048C239.161 217.944 239.329 218.728 239.665 219.4C240.017 220.072 240.497 220.6 241.105 220.984C241.729 221.352 242.433 221.536 243.217 221.536ZM258.024 223.288C256.888 223.288 255.88 223.032 255 222.52C254.12 221.992 253.424 221.264 252.912 220.336C252.416 219.408 252.168 218.312 252.168 217.048C252.168 215.8 252.416 214.712 252.912 213.784C253.408 212.84 254.096 212.112 254.976 211.6C255.872 211.072 256.904 210.808 258.072 210.808C259.224 210.808 260.216 211.072 261.048 211.6C261.896 212.112 262.544 212.792 262.992 213.64C263.44 214.488 263.664 215.4 263.664 216.376C263.664 216.552 263.656 216.728 263.64 216.904C263.64 217.08 263.64 217.28 263.64 217.504H254.16C254.208 218.416 254.416 219.176 254.784 219.784C255.168 220.376 255.64 220.824 256.2 221.128C256.776 221.432 257.384 221.584 258.024 221.584C258.856 221.584 259.552 221.392 260.112 221.008C260.672 220.624 261.08 220.104 261.336 219.448H263.328C263.008 220.552 262.392 221.472 261.48 222.208C260.584 222.928 259.432 223.288 258.024 223.288ZM258.024 212.512C257.064 212.512 256.208 212.808 255.456 213.4C254.72 213.976 254.296 214.824 254.184 215.944H261.672C261.624 214.872 261.256 214.032 260.568 213.424C259.88 212.816 259.032 212.512 258.024 212.512ZM277.391 223C276.303 223 275.447 222.736 274.823 222.208C274.199 221.68 273.887 220.728 273.887 219.352V212.8H271.823V211.096H273.887L274.151 208.24H275.903V211.096H279.407V212.8H275.903V219.352C275.903 220.104 276.055 220.616 276.359 220.888C276.663 221.144 277.199 221.272 277.967 221.272H279.215V223H277.391ZM287.064 223.288C285.944 223.288 284.936 223.032 284.04 222.52C283.144 222.008 282.432 221.288 281.904 220.36C281.392 219.416 281.136 218.312 281.136 217.048C281.136 215.784 281.4 214.688 281.928 213.76C282.456 212.816 283.168 212.088 284.064 211.576C284.976 211.064 285.992 210.808 287.112 210.808C288.232 210.808 289.24 211.064 290.136 211.576C291.032 212.088 291.736 212.816 292.248 213.76C292.776 214.688 293.04 215.784 293.04 217.048C293.04 218.312 292.776 219.416 292.248 220.36C291.72 221.288 291 222.008 290.088 222.52C289.192 223.032 288.184 223.288 287.064 223.288ZM287.064 221.56C287.752 221.56 288.392 221.392 288.984 221.056C289.576 220.72 290.056 220.216 290.424 219.544C290.792 218.872 290.976 218.04 290.976 217.048C290.976 216.056 290.792 215.224 290.424 214.552C290.072 213.88 289.6 213.376 289.008 213.04C288.416 212.704 287.784 212.536 287.112 212.536C286.424 212.536 285.784 212.704 285.192 213.04C284.6 213.376 284.12 213.88 283.752 214.552C283.384 215.224 283.2 216.056 283.2 217.048C283.2 218.04 283.384 218.872 283.752 219.544C284.12 220.216 284.592 220.72 285.168 221.056C285.76 221.392 286.392 221.56 287.064 221.56ZM306.755 223.288C305.331 223.288 304.147 222.928 303.203 222.208C302.259 221.488 301.707 220.512 301.547 219.28H303.611C303.739 219.904 304.067 220.448 304.595 220.912C305.139 221.36 305.867 221.584 306.779 221.584C307.627 221.584 308.251 221.408 308.651 221.056C309.051 220.688 309.251 220.256 309.251 219.76C309.251 219.04 308.987 218.56 308.459 218.32C307.947 218.08 307.219 217.864 306.275 217.672C305.635 217.544 304.995 217.36 304.355 217.12C303.715 216.88 303.179 216.544 302.747 216.112C302.315 215.664 302.099 215.08 302.099 214.36C302.099 213.32 302.483 212.472 303.251 211.816C304.035 211.144 305.091 210.808 306.419 210.808C307.683 210.808 308.715 211.128 309.515 211.768C310.331 212.392 310.803 213.288 310.931 214.456H308.939C308.859 213.848 308.595 213.376 308.147 213.04C307.715 212.688 307.131 212.512 306.395 212.512C305.675 212.512 305.115 212.664 304.715 212.968C304.331 213.272 304.139 213.672 304.139 214.168C304.139 214.648 304.387 215.024 304.883 215.296C305.395 215.568 306.083 215.8 306.947 215.992C307.683 216.152 308.379 216.352 309.035 216.592C309.707 216.816 310.251 217.16 310.667 217.624C311.099 218.072 311.315 218.728 311.315 219.592C311.331 220.664 310.923 221.552 310.091 222.256C309.275 222.944 308.163 223.288 306.755 223.288ZM318.539 223.288C317.131 223.288 316.011 222.864 315.179 222.016C314.347 221.152 313.931 219.832 313.931 218.056V211.096H315.947V217.84C315.947 220.32 316.963 221.56 318.995 221.56C320.035 221.56 320.891 221.192 321.563 220.456C322.251 219.704 322.595 218.64 322.595 217.264V211.096H324.611V223H322.787L322.643 220.864C322.275 221.616 321.723 222.208 320.987 222.64C320.267 223.072 319.451 223.288 318.539 223.288ZM333.401 223.288C332.265 223.288 331.241 223.032 330.329 222.52C329.433 221.992 328.721 221.264 328.193 220.336C327.681 219.392 327.425 218.296 327.425 217.048C327.425 215.8 327.681 214.712 328.193 213.784C328.721 212.84 329.433 212.112 330.329 211.6C331.241 211.072 332.265 210.808 333.401 210.808C334.809 210.808 335.993 211.176 336.953 211.912C337.929 212.648 338.545 213.632 338.801 214.864H336.737C336.577 214.128 336.185 213.56 335.561 213.16C334.937 212.744 334.209 212.536 333.377 212.536C332.705 212.536 332.073 212.704 331.481 213.04C330.889 213.376 330.409 213.88 330.041 214.552C329.673 215.224 329.489 216.056 329.489 217.048C329.489 218.04 329.673 218.872 330.041 219.544C330.409 220.216 330.889 220.728 331.481 221.08C332.073 221.416 332.705 221.584 333.377 221.584C334.209 221.584 334.937 221.384 335.561 220.984C336.185 220.568 336.577 219.984 336.737 219.232H338.801C338.561 220.432 337.953 221.408 336.977 222.16C336.001 222.912 334.809 223.288 333.401 223.288ZM347.089 223.288C345.953 223.288 344.929 223.032 344.017 222.52C343.121 221.992 342.409 221.264 341.881 220.336C341.369 219.392 341.113 218.296 341.113 217.048C341.113 215.8 341.369 214.712 341.881 213.784C342.409 212.84 343.121 212.112 344.017 211.6C344.929 211.072 345.953 210.808 347.089 210.808C348.497 210.808 349.681 211.176 350.641 211.912C351.617 212.648 352.233 213.632 352.489 214.864H350.425C350.265 214.128 349.873 213.56 349.249 213.16C348.625 212.744 347.897 212.536 347.065 212.536C346.393 212.536 345.761 212.704 345.169 213.04C344.577 213.376 344.097 213.88 343.729 214.552C343.361 215.224 343.177 216.056 343.177 217.048C343.177 218.04 343.361 218.872 343.729 219.544C344.097 220.216 344.577 220.728 345.169 221.08C345.761 221.416 346.393 221.584 347.065 221.584C347.897 221.584 348.625 221.384 349.249 220.984C349.873 220.568 350.265 219.984 350.425 219.232H352.489C352.249 220.432 351.641 221.408 350.665 222.16C349.689 222.912 348.497 223.288 347.089 223.288ZM360.656 223.288C359.52 223.288 358.512 223.032 357.632 222.52C356.752 221.992 356.056 221.264 355.544 220.336C355.048 219.408 354.8 218.312 354.8 217.048C354.8 215.8 355.048 214.712 355.544 213.784C356.04 212.84 356.728 212.112 357.608 211.6C358.504 211.072 359.536 210.808 360.704 210.808C361.856 210.808 362.848 211.072 363.68 211.6C364.528 212.112 365.176 212.792 365.624 213.64C366.072 214.488 366.296 215.4 366.296 216.376C366.296 216.552 366.288 216.728 366.272 216.904C366.272 217.08 366.272 217.28 366.272 217.504H356.792C356.84 218.416 357.048 219.176 357.416 219.784C357.8 220.376 358.272 220.824 358.832 221.128C359.408 221.432 360.016 221.584 360.656 221.584C361.488 221.584 362.184 221.392 362.744 221.008C363.304 220.624 363.712 220.104 363.968 219.448H365.96C365.64 220.552 365.024 221.472 364.112 222.208C363.216 222.928 362.064 223.288 360.656 223.288ZM360.656 212.512C359.696 212.512 358.84 212.808 358.088 213.4C357.352 213.976 356.928 214.824 356.816 215.944H364.304C364.256 214.872 363.888 214.032 363.2 213.424C362.512 212.816 361.664 212.512 360.656 212.512ZM373.529 223.288C372.105 223.288 370.921 222.928 369.977 222.208C369.033 221.488 368.481 220.512 368.321 219.28H370.385C370.513 219.904 370.841 220.448 371.369 220.912C371.913 221.36 372.641 221.584 373.553 221.584C374.401 221.584 375.025 221.408 375.425 221.056C375.825 220.688 376.025 220.256 376.025 219.76C376.025 219.04 375.761 218.56 375.233 218.32C374.721 218.08 373.993 217.864 373.049 217.672C372.409 217.544 371.769 217.36 371.129 217.12C370.489 216.88 369.953 216.544 369.521 216.112C369.089 215.664 368.873 215.08 368.873 214.36C368.873 213.32 369.257 212.472 370.025 211.816C370.809 211.144 371.865 210.808 373.193 210.808C374.457 210.808 375.489 211.128 376.289 211.768C377.105 212.392 377.577 213.288 377.705 214.456H375.713C375.633 213.848 375.369 213.376 374.921 213.04C374.489 212.688 373.905 212.512 373.169 212.512C372.449 212.512 371.889 212.664 371.489 212.968C371.105 213.272 370.913 213.672 370.913 214.168C370.913 214.648 371.161 215.024 371.657 215.296C372.169 215.568 372.857 215.8 373.721 215.992C374.457 216.152 375.153 216.352 375.809 216.592C376.481 216.816 377.025 217.16 377.441 217.624C377.873 218.072 378.089 218.728 378.089 219.592C378.105 220.664 377.697 221.552 376.865 222.256C376.049 222.944 374.937 223.288 373.529 223.288ZM385.529 223.288C384.105 223.288 382.921 222.928 381.977 222.208C381.033 221.488 380.481 220.512 380.321 219.28H382.385C382.513 219.904 382.841 220.448 383.369 220.912C383.913 221.36 384.641 221.584 385.553 221.584C386.401 221.584 387.025 221.408 387.425 221.056C387.825 220.688 388.025 220.256 388.025 219.76C388.025 219.04 387.761 218.56 387.233 218.32C386.721 218.08 385.993 217.864 385.049 217.672C384.409 217.544 383.769 217.36 383.129 217.12C382.489 216.88 381.953 216.544 381.521 216.112C381.089 215.664 380.873 215.08 380.873 214.36C380.873 213.32 381.257 212.472 382.025 211.816C382.809 211.144 383.865 210.808 385.193 210.808C386.457 210.808 387.489 211.128 388.289 211.768C389.105 212.392 389.577 213.288 389.705 214.456H387.713C387.633 213.848 387.369 213.376 386.921 213.04C386.489 212.688 385.905 212.512 385.169 212.512C384.449 212.512 383.889 212.664 383.489 212.968C383.105 213.272 382.913 213.672 382.913 214.168C382.913 214.648 383.161 215.024 383.657 215.296C384.169 215.568 384.857 215.8 385.721 215.992C386.457 216.152 387.153 216.352 387.809 216.592C388.481 216.816 389.025 217.16 389.441 217.624C389.873 218.072 390.089 218.728 390.089 219.592C390.105 220.664 389.697 221.552 388.865 222.256C388.049 222.944 386.937 223.288 385.529 223.288ZM393.665 223.12C393.265 223.12 392.929 222.992 392.657 222.736C392.401 222.464 392.273 222.136 392.273 221.752C392.273 221.368 392.401 221.048 392.657 220.792C392.929 220.52 393.265 220.384 393.665 220.384C394.049 220.384 394.369 220.52 394.625 220.792C394.897 221.048 395.033 221.368 395.033 221.752C395.033 222.136 394.897 222.464 394.625 222.736C394.369 222.992 394.049 223.12 393.665 223.12Z" fill="#7B7B7B"/>
<path d="M414.377 192V190.032L422.393 177.36H414.473V175.2H425.345V177.168L417.305 189.84H425.417V192H414.377ZM432.492 192.288C431.052 192.288 429.916 191.84 429.084 190.944C428.268 190.048 427.86 188.712 427.86 186.936V180.096H430.404V186.672C430.404 188.976 431.348 190.128 433.236 190.128C434.18 190.128 434.956 189.792 435.564 189.12C436.172 188.448 436.476 187.488 436.476 186.24V180.096H439.02V192H436.764L436.572 189.912C436.204 190.648 435.66 191.232 434.94 191.664C434.236 192.08 433.42 192.288 432.492 192.288ZM442.256 192V180.096H444.512L444.704 182.184C445.072 181.448 445.608 180.872 446.312 180.456C447.032 180.024 447.856 179.808 448.784 179.808C450.224 179.808 451.352 180.256 452.168 181.152C453 182.048 453.416 183.384 453.416 185.16V192H450.896V185.424C450.896 183.12 449.952 181.968 448.064 181.968C447.12 181.968 446.336 182.304 445.712 182.976C445.104 183.648 444.8 184.608 444.8 185.856V192H442.256ZM460.445 192.288C459.437 192.288 458.605 192.12 457.949 191.784C457.293 191.448 456.805 191.008 456.485 190.464C456.165 189.904 456.005 189.296 456.005 188.64C456.005 187.488 456.453 186.576 457.349 185.904C458.245 185.232 459.525 184.896 461.189 184.896H464.309V184.68C464.309 183.752 464.053 183.056 463.541 182.592C463.045 182.128 462.397 181.896 461.597 181.896C460.893 181.896 460.277 182.072 459.749 182.424C459.237 182.76 458.925 183.264 458.813 183.936H456.269C456.349 183.072 456.637 182.336 457.133 181.728C457.645 181.104 458.285 180.632 459.053 180.312C459.837 179.976 460.693 179.808 461.621 179.808C463.285 179.808 464.573 180.248 465.485 181.128C466.397 181.992 466.853 183.176 466.853 184.68V192H464.645L464.429 189.96C464.093 190.616 463.605 191.168 462.965 191.616C462.325 192.064 461.485 192.288 460.445 192.288ZM460.949 190.224C461.637 190.224 462.213 190.064 462.677 189.744C463.157 189.408 463.525 188.968 463.781 188.424C464.053 187.88 464.221 187.28 464.285 186.624H461.453C460.445 186.624 459.725 186.8 459.293 187.152C458.877 187.504 458.669 187.944 458.669 188.472C458.669 189.016 458.869 189.448 459.269 189.768C459.685 190.072 460.245 190.224 460.949 190.224ZM469.819 192V180.096H472.075L472.291 181.776C472.675 181.168 473.179 180.688 473.803 180.336C474.443 179.984 475.179 179.808 476.011 179.808C477.899 179.808 479.211 180.552 479.947 182.04C480.379 181.352 480.955 180.808 481.675 180.408C482.411 180.008 483.203 179.808 484.051 179.808C485.539 179.808 486.707 180.256 487.555 181.152C488.403 182.048 488.827 183.384 488.827 185.16V192H486.283V185.424C486.283 183.12 485.403 181.968 483.643 181.968C482.747 181.968 482.011 182.304 481.435 182.976C480.875 183.648 480.595 184.608 480.595 185.856V192H478.051V185.424C478.051 183.12 477.163 181.968 475.387 181.968C474.507 181.968 473.779 182.304 473.203 182.976C472.643 183.648 472.363 184.608 472.363 185.856V192H469.819ZM496.195 192.288C494.755 192.288 493.619 191.84 492.787 190.944C491.971 190.048 491.563 188.712 491.563 186.936V180.096H494.107V186.672C494.107 188.976 495.051 190.128 496.939 190.128C497.883 190.128 498.659 189.792 499.267 189.12C499.875 188.448 500.179 187.488 500.179 186.24V180.096H502.723V192H500.467L500.275 189.912C499.907 190.648 499.363 191.232 498.643 191.664C497.939 192.08 497.123 192.288 496.195 192.288ZM504.4 194.856L505.792 189.552H507.88L505.792 194.856H504.4Z" fill="#0073B3"/>
<g filter="url(#filter0_d_15_374)">
<rect x="39" y="275" width="208" height="59" rx="12" fill="#00A877" shape-rendering="crispEdges"/>
<path d="M75.75 312.264C74.298 312.264 73.0293 311.934 71.944 311.274C70.8587 310.614 70.0153 309.69 69.414 308.502C68.8127 307.314 68.512 305.928 68.512 304.344C68.512 302.775 68.82 301.389 69.436 300.186C70.052 298.983 70.9247 298.045 72.054 297.37C73.198 296.681 74.5473 296.336 76.102 296.336C77.862 296.336 79.3287 296.761 80.502 297.612C81.6753 298.463 82.438 299.636 82.79 301.132H80.15C79.9153 300.311 79.4533 299.665 78.764 299.196C78.0747 298.727 77.1873 298.492 76.102 298.492C74.4887 298.492 73.22 299.013 72.296 300.054C71.372 301.095 70.91 302.533 70.91 304.366C70.91 306.199 71.3647 307.629 72.274 308.656C73.1833 309.683 74.3933 310.196 75.904 310.196C77.4293 310.196 78.5733 309.763 79.336 308.898C80.1133 308.033 80.568 306.881 80.7 305.444H76.52V303.64H83.054V312H80.92L80.722 309.734C80.2087 310.541 79.5633 311.164 78.786 311.604C78.0087 312.044 76.9967 312.264 75.75 312.264ZM90.9003 312.264C89.8296 312.264 88.8763 312.029 88.0403 311.56C87.2189 311.076 86.5736 310.409 86.1043 309.558C85.6349 308.707 85.4003 307.717 85.4003 306.588C85.4003 305.444 85.6276 304.439 86.0823 303.574C86.5516 302.709 87.1969 302.034 88.0183 301.55C88.8543 301.066 89.8223 300.824 90.9223 300.824C91.9929 300.824 92.9243 301.066 93.7163 301.55C94.5083 302.019 95.1243 302.65 95.5643 303.442C96.0043 304.234 96.2243 305.107 96.2243 306.06C96.2243 306.207 96.2169 306.368 96.2023 306.544C96.2023 306.705 96.1949 306.889 96.1803 307.094H87.6883C87.7616 308.15 88.1063 308.957 88.7223 309.514C89.3529 310.057 90.0789 310.328 90.9003 310.328C91.5603 310.328 92.1103 310.181 92.5503 309.888C93.0049 309.58 93.3423 309.169 93.5623 308.656H95.8943C95.6009 309.683 95.0143 310.541 94.1343 311.23C93.2689 311.919 92.1909 312.264 90.9003 312.264ZM90.9003 302.738C90.1229 302.738 89.4336 302.973 88.8323 303.442C88.2309 303.897 87.8643 304.586 87.7323 305.51H93.8923C93.8483 304.659 93.5476 303.985 92.9903 303.486C92.4329 302.987 91.7363 302.738 90.9003 302.738ZM102.941 312C101.87 312 101.019 311.743 100.389 311.23C99.758 310.702 99.4426 309.771 99.4426 308.436V303.046H97.5726V301.088H99.4426L99.7286 298.316H101.775V301.088H104.855V303.046H101.775V308.436C101.775 309.037 101.899 309.455 102.149 309.69C102.413 309.91 102.86 310.02 103.491 310.02H104.745V312H102.941ZM117.972 312.264C116.843 312.264 115.853 312.066 115.002 311.67C114.151 311.274 113.484 310.709 113 309.976C112.531 309.243 112.289 308.37 112.274 307.358H114.738C114.753 308.179 115.039 308.876 115.596 309.448C116.153 310.02 116.938 310.306 117.95 310.306C118.845 310.306 119.541 310.093 120.04 309.668C120.553 309.228 120.81 308.671 120.81 307.996C120.81 307.453 120.685 307.013 120.436 306.676C120.201 306.339 119.871 306.06 119.446 305.84C119.035 305.62 118.559 305.422 118.016 305.246C117.473 305.07 116.901 304.879 116.3 304.674C115.112 304.278 114.217 303.765 113.616 303.134C113.029 302.503 112.736 301.675 112.736 300.648C112.721 299.783 112.919 299.027 113.33 298.382C113.755 297.737 114.342 297.238 115.09 296.886C115.853 296.519 116.74 296.336 117.752 296.336C118.749 296.336 119.622 296.519 120.37 296.886C121.133 297.253 121.727 297.766 122.152 298.426C122.577 299.071 122.797 299.827 122.812 300.692H120.348C120.348 300.296 120.245 299.922 120.04 299.57C119.835 299.203 119.534 298.903 119.138 298.668C118.742 298.433 118.258 298.316 117.686 298.316C116.953 298.301 116.344 298.485 115.86 298.866C115.391 299.247 115.156 299.775 115.156 300.45C115.156 301.051 115.332 301.513 115.684 301.836C116.036 302.159 116.52 302.43 117.136 302.65C117.752 302.855 118.456 303.097 119.248 303.376C120.011 303.625 120.693 303.926 121.294 304.278C121.895 304.63 122.372 305.092 122.724 305.664C123.091 306.236 123.274 306.962 123.274 307.842C123.274 308.619 123.076 309.345 122.68 310.02C122.284 310.68 121.69 311.223 120.898 311.648C120.106 312.059 119.131 312.264 117.972 312.264ZM130.312 312C129.241 312 128.39 311.743 127.76 311.23C127.129 310.702 126.814 309.771 126.814 308.436V303.046H124.944V301.088H126.814L127.1 298.316H129.146V301.088H132.226V303.046H129.146V308.436C129.146 309.037 129.27 309.455 129.52 309.69C129.784 309.91 130.231 310.02 130.862 310.02H132.116V312H130.312ZM138.326 312.264C137.402 312.264 136.64 312.11 136.038 311.802C135.437 311.494 134.99 311.091 134.696 310.592C134.403 310.079 134.256 309.521 134.256 308.92C134.256 307.864 134.667 307.028 135.488 306.412C136.31 305.796 137.483 305.488 139.008 305.488H141.868V305.29C141.868 304.439 141.634 303.801 141.164 303.376C140.71 302.951 140.116 302.738 139.382 302.738C138.737 302.738 138.172 302.899 137.688 303.222C137.219 303.53 136.933 303.992 136.83 304.608H134.498C134.572 303.816 134.836 303.141 135.29 302.584C135.76 302.012 136.346 301.579 137.05 301.286C137.769 300.978 138.554 300.824 139.404 300.824C140.93 300.824 142.11 301.227 142.946 302.034C143.782 302.826 144.2 303.911 144.2 305.29V312H142.176L141.978 310.13C141.67 310.731 141.223 311.237 140.636 311.648C140.05 312.059 139.28 312.264 138.326 312.264ZM138.788 310.372C139.419 310.372 139.947 310.225 140.372 309.932C140.812 309.624 141.15 309.221 141.384 308.722C141.634 308.223 141.788 307.673 141.846 307.072H139.25C138.326 307.072 137.666 307.233 137.27 307.556C136.889 307.879 136.698 308.282 136.698 308.766C136.698 309.265 136.882 309.661 137.248 309.954C137.63 310.233 138.143 310.372 138.788 310.372ZM146.919 312V301.088H149.009L149.207 303.156C149.589 302.437 150.117 301.873 150.791 301.462C151.481 301.037 152.309 300.824 153.277 300.824V303.266H152.639C151.994 303.266 151.415 303.376 150.901 303.596C150.403 303.801 149.999 304.161 149.691 304.674C149.398 305.173 149.251 305.869 149.251 306.764V312H146.919ZM159.853 312C158.782 312 157.931 311.743 157.301 311.23C156.67 310.702 156.355 309.771 156.355 308.436V303.046H154.485V301.088H156.355L156.641 298.316H158.687V301.088H161.767V303.046H158.687V308.436C158.687 309.037 158.811 309.455 159.061 309.69C159.325 309.91 159.772 310.02 160.403 310.02H161.657V312H159.853ZM168.996 312.264C167.925 312.264 166.972 312.029 166.136 311.56C165.315 311.076 164.669 310.409 164.2 309.558C163.731 308.707 163.496 307.717 163.496 306.588C163.496 305.444 163.723 304.439 164.178 303.574C164.647 302.709 165.293 302.034 166.114 301.55C166.95 301.066 167.918 300.824 169.018 300.824C170.089 300.824 171.02 301.066 171.812 301.55C172.604 302.019 173.22 302.65 173.66 303.442C174.1 304.234 174.32 305.107 174.32 306.06C174.32 306.207 174.313 306.368 174.298 306.544C174.298 306.705 174.291 306.889 174.276 307.094H165.784C165.857 308.15 166.202 308.957 166.818 309.514C167.449 310.057 168.175 310.328 168.996 310.328C169.656 310.328 170.206 310.181 170.646 309.888C171.101 309.58 171.438 309.169 171.658 308.656H173.99C173.697 309.683 173.11 310.541 172.23 311.23C171.365 311.919 170.287 312.264 168.996 312.264ZM168.996 302.738C168.219 302.738 167.529 302.973 166.928 303.442C166.327 303.897 165.96 304.586 165.828 305.51H171.988C171.944 304.659 171.643 303.985 171.086 303.486C170.529 302.987 169.832 302.738 168.996 302.738ZM181.712 312.264C180.656 312.264 179.724 312.015 178.918 311.516C178.111 311.017 177.48 310.335 177.026 309.47C176.571 308.605 176.344 307.622 176.344 306.522C176.344 305.422 176.571 304.447 177.026 303.596C177.48 302.731 178.111 302.056 178.918 301.572C179.739 301.073 180.678 300.824 181.734 300.824C182.599 300.824 183.354 300.993 184 301.33C184.66 301.667 185.173 302.144 185.54 302.76V296.16H187.872V312H185.782L185.54 310.306C185.188 310.819 184.704 311.274 184.088 311.67C183.472 312.066 182.68 312.264 181.712 312.264ZM182.13 310.24C183.127 310.24 183.941 309.895 184.572 309.206C185.217 308.517 185.54 307.629 185.54 306.544C185.54 305.444 185.217 304.557 184.572 303.882C183.941 303.193 183.127 302.848 182.13 302.848C181.132 302.848 180.311 303.193 179.666 303.882C179.02 304.557 178.698 305.444 178.698 306.544C178.698 307.263 178.844 307.901 179.138 308.458C179.431 309.015 179.834 309.455 180.348 309.778C180.876 310.086 181.47 310.24 182.13 310.24Z" fill="white"/>
<path d="M207.21 298.79L212.21 303.79C212.301 303.885 212.372 303.997 212.42 304.12C212.52 304.364 212.52 304.637 212.42 304.88C212.372 305.003 212.301 305.115 212.21 305.21L207.21 310.21C207.117 310.303 207.006 310.377 206.884 310.428C206.762 310.478 206.632 310.504 206.5 310.504C206.234 310.504 205.978 310.398 205.79 310.21C205.602 310.022 205.496 309.766 205.496 309.5C205.496 309.234 205.602 308.978 205.79 308.79L209.09 305.5H201.5C201.235 305.5 200.98 305.395 200.793 305.207C200.605 305.02 200.5 304.765 200.5 304.5C200.5 304.235 200.605 303.98 200.793 303.793C200.98 303.605 201.235 303.5 201.5 303.5H209.09L205.79 300.21C205.696 300.117 205.622 300.006 205.571 299.885C205.52 299.763 205.494 299.632 205.494 299.5C205.494 299.368 205.52 299.237 205.571 299.115C205.622 298.994 205.696 298.883 205.79 298.79C205.883 298.696 205.994 298.622 206.115 298.571C206.237 298.52 206.368 298.494 206.5 298.494C206.632 298.494 206.763 298.52 206.885 298.571C207.006 298.622 207.117 298.696 207.21 298.79Z" fill="white"/>
</g>
<path d="M519.957 303.585C516.52 307.718 514.866 313.047 515.359 318.4C515.851 323.753 518.45 328.691 522.583 332.128C526.717 335.565 532.046 337.219 537.399 336.726C542.752 336.234 547.69 333.635 551.127 329.502L535.542 316.543L519.957 303.585Z" fill="#0073B3" fill-opacity="0.2"/>
<defs>
<filter id="filter0_d_15_374" x="0" y="236" width="286" height="137" filterUnits="userSpaceOnUse" color-interpolation-filters="sRGB">
<feFlood flood-opacity="0" result="BackgroundImageFix"/>
<feColorMatrix in="SourceAlpha" type="matrix" values="0 0 0 0 0 0 0 0 0 0 0 0 0 0 0 0 0 0 127 0" result="hardAlpha"/>
<feOffset/>
<feGaussianBlur stdDeviation="19.5"/>
<feComposite in2="hardAlpha" operator="out"/>
<feColorMatrix type="matrix" values="0 0 0 0 0 0 0 0 0 0.658824 0 0 0 0 0.466667 0 0 0 0.5 0"/>
<feBlend mode="normal" in2="BackgroundImageFix" result="effect1_dropShadow_15_374"/>
<feBlend mode="normal" in="SourceGraphic" in2="effect1_dropShadow_15_374" result="shape"/>
</filter>
</defs>
</svg>
