<svg width="25" height="25" viewBox="0 0 25 25" fill="none" xmlns="http://www.w3.org/2000/svg">
<g clip-path="url(#clip0_64_90)">
<path d="M7.79601 21.9958C16.8504 21.9958 21.8041 14.4926 21.8041 7.98771C21.8041 7.77677 21.7994 7.56115 21.7901 7.35021C22.7537 6.65331 23.5853 5.7901 24.2458 4.80115C23.3484 5.20045 22.3955 5.46123 21.4198 5.57459C22.4471 4.95876 23.2164 3.99132 23.5849 2.85162C22.6184 3.42441 21.5614 3.82846 20.4593 4.04646C19.7167 3.25741 18.7348 2.73497 17.6655 2.5599C16.5962 2.38484 15.499 2.5669 14.5436 3.07795C13.5881 3.58899 12.8277 4.40056 12.3797 5.38716C11.9317 6.37377 11.8213 7.48046 12.0654 8.53615C10.1083 8.43794 8.19379 7.92955 6.44583 7.04395C4.69788 6.15834 3.15554 4.91529 1.91882 3.39537C1.29025 4.47909 1.09791 5.76149 1.38088 6.98194C1.66385 8.20239 2.40091 9.2693 3.44226 9.96584C2.66048 9.94102 1.89583 9.73053 1.21147 9.35177V9.41271C1.21077 10.55 1.60395 11.6524 2.32416 12.5326C3.04437 13.4128 4.04717 14.0164 5.1621 14.2408C4.4379 14.439 3.67783 14.4678 2.94069 14.3252C3.2553 15.3033 3.86742 16.1587 4.69162 16.7722C5.51582 17.3856 6.51097 17.7264 7.53819 17.7471C5.79427 19.117 3.64002 19.86 1.42241 19.8565C1.02914 19.8559 0.636249 19.8318 0.24585 19.7843C2.49871 21.2296 5.11938 21.9972 7.79601 21.9958Z" fill="white"/>
</g>
<defs>
<clipPath id="clip0_64_90">
<rect width="24" height="24" fill="white" transform="translate(0.24585 0.24585)"/>
</clipPath>
</defs>
</svg>
