<svg width="92" height="80" viewBox="0 0 92 80" fill="none" xmlns="http://www.w3.org/2000/svg">
<path d="M48.2781 19.968L48.1562 19.9317C47.5415 19.7483 47.191 19.1019 47.3744 18.4867L48.2781 19.968ZM48.2781 19.968L48.2834 19.9619M48.2781 19.968L48.2834 19.9619M48.2834 19.9619C48.86 20.0662 49.432 19.721 49.6014 19.149C51.1453 13.9613 56.0094 10.3372 61.4287 10.3372C62.0703 10.3372 62.5906 9.81678 62.5906 9.17521C62.5906 8.53361 62.0703 8.01327 61.4287 8.01327C54.7684 8.01327 49.1716 12.4477 47.3745 18.4866L48.2834 19.9619Z" fill="#483EA8" stroke="#F9FFF9" stroke-width="0.395335"/>
<path d="M74.9286 56.4247H69.1431C68.6107 56.4247 68.1788 55.9928 68.1788 55.4604C68.1788 54.928 68.6107 54.4961 69.1431 54.4961H74.9286C82.9037 54.4961 89.3925 48.0073 89.3925 40.0322C89.3925 32.0571 82.9037 25.5683 74.9286 25.5683H74.7895C74.5098 25.5683 74.244 25.447 74.0608 25.2356C73.8776 25.0242 73.7949 24.7438 73.8349 24.4669C73.921 23.8663 73.9643 23.263 73.9643 22.6755C73.9643 15.7638 68.3405 10.14 61.4288 10.14C58.7399 10.14 56.1757 10.9803 54.0129 12.5706C53.5376 12.9198 52.8627 12.7649 52.5879 12.2421C46.4627 0.578671 30.4646 -0.987605 22.1704 9.15854C18.6764 13.433 17.3035 18.9933 18.4036 24.4126C18.5248 25.0111 18.0668 25.569 17.4586 25.569H17.0722C9.09716 25.569 2.60831 32.0579 2.60831 40.0329C2.60831 48.008 9.09716 54.4969 17.0722 54.4969H22.8577C23.3902 54.4969 23.822 54.9287 23.822 55.4611C23.822 55.9936 23.3902 56.4254 22.8577 56.4254H17.0722C8.03358 56.4254 0.679688 49.0715 0.679688 40.0329C0.679688 31.2478 7.62645 24.0543 16.3153 23.6576C15.4991 18.0352 17.0598 12.3639 20.6772 7.93807C29.5573 -2.92571 46.5755 -1.70802 53.7694 10.4059C56.0644 8.96705 58.6906 8.21225 61.4285 8.21225C69.8025 8.21225 76.438 15.3396 75.8574 23.6666C84.4662 24.1494 91.3207 31.3049 91.3207 40.0322C91.3207 49.0715 83.9668 56.4247 74.9282 56.4247L74.9286 56.4247Z" fill="#483EA8"/>
<path d="M21.568 54.9194C21.568 68.3212 32.4709 79.2239 45.8725 79.2239C59.2743 79.2239 70.177 68.321 70.177 54.9194C70.177 41.5176 59.2743 30.6148 45.8725 30.6148C32.4707 30.6148 21.568 41.5177 21.568 54.9194ZM23.8923 54.9194C23.8923 42.7998 33.7528 32.9391 45.8725 32.9391C57.992 32.9391 67.8527 42.7997 67.8527 54.9194C67.8527 67.0389 57.992 76.8996 45.8725 76.8996C33.753 76.8996 23.8923 67.0391 23.8923 54.9194Z" fill="#483EA8" stroke="#F9FFF9" stroke-width="0.395335"/>
<path d="M45.4117 64.6233C45.4117 65.1223 45.8164 65.5269 46.3153 65.5269C46.8142 65.5269 47.2189 65.1229 47.2189 64.6233V46.2685C47.2189 45.7695 46.8143 45.3648 46.3153 45.3648C45.8164 45.3648 45.4117 45.7695 45.4117 46.2685V64.6233Z" fill="#483EA8" stroke="#483EA8" stroke-width="0.395335"/>
<path d="M46.3107 47.5465L41.3022 52.555C41.3022 52.555 41.3022 52.555 41.3021 52.555L41.3021 52.5551L41.1623 52.4153L46.3107 47.5465ZM46.3107 47.5465L51.3193 52.5551C51.4955 52.7313 51.7274 52.8197 51.9582 52.8197L46.3107 47.5465ZM46.9496 45.6296C46.5967 45.2766 46.0242 45.2765 45.6715 45.6297L51.9583 52.8197C52.1886 52.8197 52.4208 52.7321 52.5973 52.555C52.9502 52.202 52.9502 51.6301 52.5972 51.2771L46.9496 45.6296Z" fill="#483EA8" stroke="#483EA8" stroke-width="0.395335"/>
</svg>
