<svg width="25" height="25" viewBox="0 0 25 25" fill="none" xmlns="http://www.w3.org/2000/svg">
<g clip-path="url(#clip0_64_92)">
<path d="M24.0068 7.4459C24.0068 7.4459 23.7724 5.79121 23.0505 5.06465C22.1365 4.1084 21.1146 4.10371 20.6459 4.04746C17.2896 3.80371 12.2505 3.80371 12.2505 3.80371H12.2412C12.2412 3.80371 7.2021 3.80371 3.84585 4.04746C3.3771 4.10371 2.35522 4.1084 1.44116 5.06465C0.719287 5.79121 0.4896 7.4459 0.4896 7.4459C0.4896 7.4459 0.24585 9.39121 0.24585 11.3318V13.1506C0.24585 15.0912 0.484912 17.0365 0.484912 17.0365C0.484912 17.0365 0.719287 18.6912 1.43647 19.4178C2.35054 20.374 3.55054 20.3412 4.08491 20.4443C6.00679 20.6271 12.2458 20.6834 12.2458 20.6834C12.2458 20.6834 17.2896 20.674 20.6459 20.435C21.1146 20.3787 22.1365 20.374 23.0505 19.4178C23.7724 18.6912 24.0068 17.0365 24.0068 17.0365C24.0068 17.0365 24.2458 15.0959 24.2458 13.1506V11.3318C24.2458 9.39121 24.0068 7.4459 24.0068 7.4459ZM9.76616 15.3584V8.61309L16.249 11.9975L9.76616 15.3584Z" fill="white"/>
</g>
<defs>
<clipPath id="clip0_64_92">
<rect width="24" height="24" fill="white" transform="translate(0.24585 0.24585)"/>
</clipPath>
</defs>
</svg>
